<svg version="1.1" xmlns="http://www.w3.org/2000/svg" viewBox="0 0 876.5 399.5" width="876.5" height="399.5">
  <!-- svg-source:excalidraw -->
  
  <defs>
    <style>
      @font-face {
        font-family: "Virgil";
        src: url("https://excalidraw.com/Virgil.woff2");
      }
      @font-face {
        font-family: "Cascadia";
        src: url("https://excalidraw.com/Cascadia.woff2");
      }
    </style>
  </defs>
  <g stroke-linecap="round" transform="translate(10 128) rotate(0 85.5 25.5)"><path d="M0 0 C0 0, 0 0, 0 0 M0 0 C0 0, 0 0, 0 0 M-1.05 6.77 C1.71 4.38, 3.65 1.05, 5.69 -0.18 M-0.01 6.4 C1.86 4.24, 3.76 2.09, 5.35 0.53 M0.63 12.73 C3.22 8.34, 6.13 4.8, 10.82 -0.37 M0.25 12.58 C3.27 7.83, 6.09 5.33, 10.3 0.05 M-0.19 17.25 C4.84 14.14, 7.22 6.93, 14.48 -0.98 M0.57 18.12 C2.68 13.24, 7.04 10.96, 15.26 0.92 M-0.56 25.94 C6.18 17.57, 10.17 11.87, 19.27 -1.34 M1.16 23.28 C8.33 14.91, 16.32 6.26, 20.9 0.4 M0.87 29.79 C5.52 23.91, 12.26 14.11, 25.9 -0.43 M0.37 30.85 C10.38 19.44, 19.95 8.95, 25.77 0.71 M0.4 38.74 C8.42 24.61, 20.49 15.3, 31.14 -2.05 M0.09 37.08 C5.81 29.92, 14.43 21.41, 32.06 -0.95 M-0.68 41.3 C15.13 26.64, 28.6 11.49, 36.38 -1.74 M-0.6 42.04 C10.74 30.09, 19.89 18.86, 36.9 0.61 M-0.3 50.02 C12.1 34.02, 24.58 19.58, 40.73 0.39 M-0.81 48.74 C11.97 35.07, 24.93 21.01, 43.14 0.4 M2.79 51.1 C12.9 37.95, 23.37 25.48, 45.58 0.89 M2.35 51.52 C13.81 40.73, 23.85 28.13, 46.76 0.22 M6.94 52.66 C24.43 31.15, 44.96 11.03, 51.62 0.13 M6.44 52 C26.05 31.35, 42.38 11.02, 53.67 0.51 M12.1 53.17 C24.23 41.22, 35.36 29.34, 59.46 -0.51 M11.98 52.22 C27.99 34.29, 44.58 16.04, 59.06 -0.71 M19.51 53.84 C32.28 34.33, 49.26 17.54, 62.64 0.56 M16.93 52.81 C30.65 36.95, 44.72 21.61, 64.27 0.05 M22.26 53.84 C41.07 32.84, 57.11 14.74, 68.24 -1.68 M23.03 52.83 C38.92 33.6, 56.59 16, 68.11 0.69 M27.73 52.22 C46.48 31.62, 63.44 14.85, 73.91 0.3 M29 53.51 C46.06 33.02, 60.96 14.17, 73.7 -0.64 M32.11 51.1 C45.32 39.9, 54.73 28.54, 80.44 -0.17 M32.89 52.11 C51.77 32.96, 67.78 12.05, 79.85 -0.55 M39.49 52.87 C56.82 31.59, 72.58 13.88, 84.82 -0.84 M39.89 52.82 C50.91 38.64, 62.5 24.86, 85.83 -0.59 M44.41 51.39 C54.54 39.08, 64.92 29.63, 88.84 -1.29 M44.73 52.71 C60.85 32.9, 78.73 14.61, 90.8 -0.28 M50.95 53.12 C64.09 36.86, 80.84 18.73, 96.07 0.19 M49.46 52.58 C63.21 36.02, 76.84 20, 96.61 -1.22 M55.23 52.39 C72.4 32.49, 88.76 11.81, 100.52 -0.13 M53.84 52.93 C69.09 36.86, 82.08 21.15, 101.13 -0.19 M60.56 52.5 C69.98 40.99, 80.78 28.88, 107.62 -0.34 M61.17 52.79 C74.06 36.55, 86.74 22.29, 107.12 -1.26 M63.91 52.98 C82.82 31.79, 99.61 12.05, 110.83 0.42 M64.61 53.7 C80.34 36.96, 93.4 20.63, 111.58 -0.84 M71.05 50.74 C78.22 42.47, 90.99 32.03, 116.04 1.8 M71.08 52.57 C80.34 42.21, 88.95 31.34, 115.9 0.93 M75.06 51.27 C94.37 31.09, 111.63 14.43, 121.41 -0.28 M75.54 53.6 C86.78 40.26, 95.68 28.19, 122.52 -0.64 M83.43 53.81 C98.78 35.64, 112.08 19.8, 127.19 1.8 M80.87 53.19 C92.23 38.89, 103.62 27.71, 126.55 -0.63 M88.59 54.58 C101.16 37.13, 116.55 17.27, 134.17 1.31 M86.23 51.84 C97.66 41.15, 108.22 28.58, 132.93 -0.88 M91 51.91 C103.98 41.26, 115.49 25.14, 138.21 0.34 M92.84 53.06 C106.93 36.52, 121.51 19.78, 136.82 -0.03 M97.68 53.47 C107.59 42.38, 118.17 30.42, 141.32 -1.01 M96.4 53.28 C114.8 33.33, 131.1 14.55, 143.4 -0.68 M101.32 53.43 C113.48 43.04, 122.78 28.99, 146.19 -1.44 M102.87 52.74 C116.44 37.55, 128.96 22.22, 148.23 0.56 M106.79 51.68 C117.74 40.65, 126.38 29.57, 155.32 -1.26 M108.87 53.42 C118.22 41.02, 129.12 27.87, 153.1 -0.05 M114.24 50.99 C129.86 35.61, 145.42 16.84, 157.51 0.8 M113.48 51.92 C125.59 39.35, 137.31 24.98, 158.39 0.57 M117.66 52.22 C132.99 34.06, 148.99 19.05, 162.95 0.78 M118.59 53.39 C133.51 35.84, 146.83 19.59, 164.86 -0.83 M123.26 52.2 C133.99 43.85, 141.66 31.92, 169.8 0.65 M124.12 53.18 C141.48 31.9, 160.13 11.87, 170.04 0.11 M127.33 51.26 C142.35 35.94, 156.8 20.79, 173.27 3.81 M129.6 52.98 C139.65 40.66, 149.76 28.22, 172.11 2.52 M136.09 54.61 C145.48 41.11, 158.36 26.21, 175.45 6.46 M134.84 52 C145.94 38.63, 158.82 25.45, 173.47 8.44 M138.1 52.25 C149.71 42.7, 157.79 31.8, 173.05 14.03 M140.06 51.6 C149.07 40.68, 159.99 29.27, 173.31 14.98 M144.78 52.23 C151.21 45.28, 160.18 34.55, 174.63 21.96 M145.3 52.24 C154.81 42.3, 162.9 32.14, 172.6 19.69 M151.55 51.8 C157.56 45.87, 166.71 34.63, 172.41 24.51 M151.22 53.32 C159.71 41.52, 169.25 32.89, 172.64 25.3 M154.31 54.59 C160.93 45.96, 167.23 39.76, 172.09 34.35 M154.46 52.15 C162.61 46.39, 167.52 38.78, 172.72 31.82 M162.49 53.73 C166.6 48.9, 172.1 42.54, 175.17 36.43 M160.5 51.86 C165.39 47.45, 171.46 41.03, 173.32 38.19 M167.08 53.16 C168.11 50.01, 169.98 48.51, 173.63 43.63 M166.49 52.48 C168.73 50.69, 170.02 48.03, 172.76 44.4 M-0.35 50.7 C-0.35 50.7, -0.35 50.7, -0.35 50.7 M-0.35 50.7 C-0.35 50.7, -0.35 50.7, -0.35 50.7 M6.27 50.84 C5.22 50.6, 3.74 48.39, -0.43 45.9 M5.67 51.31 C3.65 49.22, 1.89 46.93, -0.21 45.96 M13.13 51.31 C8.61 47.49, 3.26 41.97, 0.81 41.69 M13.22 51.03 C9.86 48.43, 5.88 45.18, 0.36 41.49 M18.74 52.25 C14.35 45.07, 8.04 42.46, 0.84 34.41 M18.5 50.61 C11.31 45.6, 4.18 39.31, 0.92 34.18 M26.42 49.84 C17.3 45.79, 11.26 38.99, 2.14 29.85 M24.65 51.39 C15.77 42.62, 5.76 34.45, -0.52 30.28 M30.44 50.76 C18.97 43.71, 9.39 33.16, -0.81 25.42 M30.48 51.49 C23.25 44.3, 15.5 36.65, 0.06 24.13 M37.39 50.39 C21.55 37.47, 6.52 26.51, 1.18 17.67 M36.56 51.79 C29.33 45.25, 22.27 38.42, 1.01 19.69 M42.85 51.41 C27.06 37.97, 11.88 25.23, 1.85 14.51 M42.77 52.09 C27.74 38.19, 12.68 24.93, 0.51 13.39 M49.49 50.94 C36.34 42.82, 25.72 31.48, -0.65 7.57 M48.07 51.09 C36.63 39.89, 23.94 29.21, 1.25 8.32 M55.12 49.71 C34.77 36.26, 18.38 17.85, -1.99 4.23 M55.46 51.2 C33.48 33.44, 12.72 15.09, -0.04 2.83 M59.27 52.65 C42.19 34.5, 28.27 21.6, 0.97 0.62 M60.2 49.85 C39.89 32.44, 18.34 14.72, 0.84 -0.62 M66.96 49.34 C50.75 35.96, 33.93 22.54, 7.68 0.91 M66.51 51.7 C43.56 31.97, 22.35 12.84, 6.81 -1.51 M75.32 50.58 C57.07 36.48, 43.66 25.51, 12.45 -1.38 M73.85 51.89 C57.28 36.51, 39.42 22.14, 12.85 -2.25 M77.59 49.55 C67.39 39.18, 51.31 26.93, 17.58 0.9 M79.75 50.98 C56.49 31.4, 33.74 11.45, 18.95 -1.11 M85.25 53.01 C68.69 36.43, 50.28 20.46, 24.61 -1.44 M85.75 50.74 C70.17 36.7, 53.04 23.84, 24.09 -0.58 M92.53 51.81 C75.69 35.69, 59.73 22.35, 32.21 0.47 M90.61 50.56 C70.4 34.64, 51.23 16.48, 31.92 -2.13 M98.23 51.42 C77.72 36.56, 63.02 21.53, 36.63 0.18 M98.02 50.52 C78.85 33.56, 59.01 17.95, 38.03 0.03 M102.31 50.46 C89.81 41.09, 77.21 27.11, 41.87 -0.96 M103.87 51.76 C91.04 39.11, 75.97 26.12, 43.86 -1.14 M107.93 51.87 C93.67 38.05, 80.43 24.17, 51.69 -0.58 M110.13 50.32 C91.45 33.71, 73.18 18.91, 49.5 -0.64 M117.51 52.08 C98.2 36.89, 78.98 21.54, 56.16 -2.75 M115.68 52.06 C94.04 32.73, 73.2 12.69, 56.04 -2.1 M123.31 49.61 C107.2 34.67, 88.28 21.65, 63.52 -1.54 M120.65 49.91 C105.19 37.02, 87.84 21.9, 62.2 -1.66 M127.24 49.46 C117.46 41.17, 104.47 28.78, 66.7 -0.4 M127.04 50.07 C114.39 39.43, 102.94 28.74, 68.59 -0.63 M135.38 51.78 C112.48 34.43, 94.67 13.3, 75.39 -3.01 M135.02 51.32 C116.65 34.76, 96.85 19.32, 74.67 -0.63 M138.12 48.94 C120.87 37.15, 103.71 21.86, 82.13 -2.13 M139.82 49.87 C127.39 41.09, 114.58 28.14, 80.49 -1.72 M148.16 52.77 C131.47 38.09, 117.6 25.3, 86.83 -1.03 M145.54 51.27 C130.11 37.48, 113.1 23.21, 86.08 -2.04 M153.08 49.08 C129.5 30.96, 103.4 7.73, 90.64 -3 M152.49 50.69 C129.23 30.03, 104.81 9.45, 93.07 -0.72 M157.19 52.16 C135.12 32.62, 114.84 12.1, 100.43 -0.81 M158.85 50.09 C142.8 37.55, 124.57 22.73, 97.97 -1.53 M166.06 51.32 C143.56 31.98, 119.2 12.55, 102.93 -1.5 M163.91 50.53 C147.01 36, 130.23 20.95, 104.05 -1.01 M168.58 50.08 C152.61 34.48, 135.34 22.06, 112.78 -1.28 M169.98 50.08 C156.1 39.09, 143.68 28.29, 110.2 -1.61 M174.02 48.7 C162.86 40.43, 152.39 29.95, 115.02 -0.89 M174.22 47.98 C159.55 35.7, 142.58 22.41, 117.23 -2.34 M172.63 42.02 C159.25 31.72, 148.59 20.32, 121.01 -1.19 M172.99 43.32 C158.56 31.74, 145.87 18.27, 122.51 -0.66 M175.44 35.87 C161.72 26.37, 149.43 19.33, 130.92 -2.56 M174.46 37.09 C156.64 23.7, 138.3 7.74, 130.28 -1.13 M174.03 33.8 C163.05 23.56, 153.88 12.96, 133.8 0.26 M174.15 31.66 C160.89 20.54, 148.1 9.45, 134.51 -0.58 M175.41 28.13 C167.84 21.51, 160.74 13.58, 141.69 -2.66 M174.59 27.51 C162.89 17.29, 150.68 6.79, 140.74 -0.16 M171.74 19.85 C164.91 15.31, 154.61 5.36, 146.1 -1.89 M172.83 21.94 C162.89 12.24, 152.68 4.09, 147.41 -1.13 M172.25 15.12 C165.4 11.87, 160.45 4.31, 151.91 -2.15 M173.13 17.17 C166.73 10.65, 158.89 4.32, 153.49 -1.59 M173.01 9.34 C168.82 5.95, 163.62 3.69, 158.07 0.14 M172.57 11.03 C167.99 5.81, 162.61 2.54, 159.78 -0.34 M173.1 6.36 C171.47 4.24, 167.46 -0.2, 166.13 -0.26 M173.45 5.49 C171.92 4.69, 170.46 2.74, 165.07 -0.91" stroke="#868e96" stroke-width="0.5" fill="none"></path><path d="M1.1 -0.91 C55 0.05, 108.95 1.62, 169.11 0.03 M0.33 0.53 C52.73 1.31, 104.24 -0.1, 171.85 0.4 M169.22 1.65 C169.14 9.82, 170.19 19, 169.43 49.92 M171.37 -0.91 C170.35 14.62, 171.28 29.29, 170.9 51.95 M169.64 51.15 C128.22 47.74, 87.31 47.72, 0.35 49.14 M171.65 51.13 C117.5 49.26, 65.01 50.2, -0.15 51.87 M-1.94 51.51 C0.31 33.96, -0.25 20.17, -0.78 -0.22 M0.66 50.53 C0.6 33.4, -0.69 14.16, -0.59 -0.39" stroke="#000000" stroke-width="1" fill="none"></path></g><g transform="translate(23 141) rotate(0 72 12.5)"><text x="0" y="18" font-family="Virgil, Segoe UI Emoji" font-size="20px" fill="#000000" text-anchor="start" style="white-space: pre;" direction="ltr">Load Balancer</text></g><g stroke-linecap="round" transform="translate(585 236) rotate(0 81 26.5)"><path d="M0 0 C0 0, 0 0, 0 0 M0 0 C0 0, 0 0, 0 0 M-0.12 6.3 C1.4 4.38, 2.71 3.8, 5.05 0.45 M0.11 6.25 C1.63 4.77, 3.48 2.69, 4.8 0.05 M1.41 11.63 C3.99 6.17, 8.07 3.33, 9.9 1.22 M-0.53 12.53 C3.36 8.16, 6.73 3.61, 11.35 0.52 M1.45 18.72 C7.4 10.23, 13.8 4.69, 14.09 1.86 M0.3 18.08 C4.04 12.92, 10.04 6.16, 16.6 1.23 M-0.71 25.7 C7.14 16.17, 12.55 9.47, 20.47 -1.94 M-0.06 24.47 C7.38 14.27, 15.72 5.4, 20.63 -0.31 M-1.08 31.16 C7.72 21.55, 14.42 13.24, 27.39 1.65 M0.29 29.77 C7.75 20.06, 16.31 11.36, 26.46 0.65 M1.44 35.02 C7.96 27.28, 18.55 14.01, 30.17 0.97 M-0.21 37.09 C11.73 21.51, 25.15 8.76, 31.1 0.44 M-1.42 40.55 C11.71 26.41, 25.75 9.25, 36.83 1.04 M0.1 42.58 C11.3 29.47, 21.8 17.13, 36.33 -0.26 M-0.08 50.43 C10.82 34.32, 24.21 22.22, 44.5 1.29 M0.09 48.21 C10.44 36.93, 22.18 24.71, 42.88 -0.8 M1.36 52.52 C18.2 32.91, 34.15 13.46, 47.41 -0.57 M-0.01 53.4 C16.89 35.78, 32.73 18.02, 47.08 -0.01 M7.62 52.68 C20.03 39.53, 31.72 25.71, 53.31 1.27 M6.64 54.59 C20.97 35.5, 37.51 17.48, 53.03 -0.59 M12.93 54.15 C26.87 38.31, 42.96 19.14, 59.38 0.49 M11.9 54.39 C26.94 36.08, 42.65 17.46, 57.23 -0.5 M18.06 54.3 C29.53 40.42, 40.79 27.7, 64.7 0.48 M16.34 53.14 C32.74 36.07, 47.45 17.19, 64.76 0.6 M22.18 55.69 C32.93 39.6, 46.85 26.52, 70.18 -1.84 M22.89 53.72 C35.6 38.66, 46.82 24.62, 67.93 -0.03 M26.75 53.91 C43.17 35.7, 60.86 15.12, 74.98 -2.24 M27.43 54.18 C38.55 42.04, 48.35 30.04, 74.42 -0.61 M32.04 55.36 C45.22 41.24, 54.41 27.04, 80.48 -1.33 M33 53.33 C49.71 33.85, 67.52 13.21, 79.97 -0.26 M36.98 53.11 C48.76 40.44, 62.08 22.18, 86.68 1.23 M38.4 53.33 C52.76 36.37, 69.51 18.11, 84.5 0.55 M43.66 52.65 C58.88 39.49, 71.88 20.91, 88.16 -1.47 M44.4 53.29 C59.54 34.93, 77.24 14.64, 90.79 0.71 M49.25 55.78 C62.35 36.86, 80.84 15.83, 94.54 -1.72 M48.36 53.84 C59.26 40.63, 70.35 28.71, 96.63 -0.07 M54.42 54.34 C67.06 37.04, 82.17 21.02, 102.35 -1.46 M54.41 52.76 C71.47 32.52, 89.21 12.11, 101.47 -0.56 M59.3 54.1 C76.68 33.48, 92.25 14.78, 107.54 1.6 M58.08 53.56 C73.3 36.2, 89.09 20.12, 106.58 -0.5 M63.91 52.49 C81.44 35.56, 99.37 13.47, 109.36 1.76 M64.48 53.04 C77.6 39.49, 90.37 25.09, 111.71 0.07 M68.08 54.5 C87.39 34.1, 101.27 16.63, 118.19 -0.09 M68.96 53.94 C87.58 34.56, 103.21 14.78, 116.6 1.09 M75.93 54.43 C92.02 35.12, 110.54 13.03, 122.73 -0.45 M75.23 54.5 C87.04 38.84, 101.38 23.64, 122.88 -0.65 M79.76 55.72 C92.66 41.07, 105.01 24.33, 127.23 0.94 M80.05 53.06 C97.46 34.67, 114.67 15.55, 127.06 0.37 M84.52 52.78 C96.67 41.5, 105.96 29.11, 133.24 1.55 M85.38 53.65 C102.76 34.24, 120.74 12.48, 132.98 -0.34 M91.73 54.77 C102.03 37.67, 118.25 26.1, 137.6 1.97 M91.03 54.6 C106.93 35.54, 123.7 17.35, 137.5 0.4 M95.93 55.44 C109.65 40.87, 122.9 25.65, 142.85 1.66 M96.82 54.09 C111.74 34.42, 127.68 18.02, 143.64 -0.03 M100.6 52.94 C110.54 41.2, 121.13 30.27, 147.17 0.81 M101.23 54.83 C115.53 38, 130 21.25, 148.24 -0.42 M106.61 51.6 C118.19 43.1, 126.98 31.35, 154.78 0.1 M107.57 53.55 C118.74 39.43, 131.2 25.85, 153.13 0.86 M112.18 53.8 C124.55 42.94, 132.16 30.65, 157.97 -1.44 M112.62 53.67 C127.08 37.36, 139.88 22.05, 158.77 -0.57 M116.61 54.47 C132.04 41.3, 144.78 24.51, 162.13 2.84 M118.13 53.6 C127.08 41, 138.68 29.31, 164.08 1.03 M123.53 53.21 C133.32 41.37, 144.18 29.57, 164.4 8.36 M122.79 53.61 C136.6 36.35, 152.39 21.03, 162.79 6.36 M126.13 52.3 C143.06 40.7, 155.58 23.12, 164.67 13.71 M127.12 53.67 C137.7 42.84, 147.99 31.89, 163.16 14.36 M132.91 53.29 C143.42 41.51, 153.2 29.98, 163.6 19.12 M134 52.77 C144.74 41.81, 153.8 30.54, 163.72 20.35 M137.64 54.85 C148.13 45.65, 155 36.6, 162.43 25.18 M138.32 54.56 C142.64 47.91, 149.72 41, 163.76 25.67 M145.8 52.48 C149.04 49.36, 150.92 44.46, 164.19 30.97 M144.14 53.88 C151.11 46.27, 156.85 39.68, 162.34 31.46 M148.49 52.44 C153.32 47.98, 155.96 44.13, 163.49 38.57 M148.32 54.43 C154.61 47.36, 158.94 42.53, 162.73 38 M153.54 54.84 C156.85 51.81, 158 48.65, 164.04 43.24 M155.38 53.42 C157.97 50.17, 161.03 47.39, 163.78 44.2 M159.85 54.2 C160.38 53.19, 162.04 51.71, 162.88 50.76 M159.5 54.17 C160.51 52.8, 161.9 51.57, 163.22 50.14 M0.17 53.15 C0.17 53.15, 0.17 53.15, 0.17 53.15 M0.17 53.15 C0.17 53.15, 0.17 53.15, 0.17 53.15 M5.13 52.1 C3.63 50.02, 1.55 49.27, -0.97 46.81 M5.57 52.85 C4.51 51.71, 2.63 50.09, -0.02 47.62 M11.12 54.14 C7.99 50.86, 5.12 48.18, 1.18 42.71 M12.68 53.56 C8.59 49.23, 3.98 46.01, -0.62 41.77 M19.35 55.02 C13.54 48.02, 9.12 47.92, -0.64 35.01 M17.67 53.38 C12.64 48.19, 8.93 43.59, 0.62 37.73 M24.38 53.68 C17.27 45.96, 10.64 39.36, -1.64 32.29 M24.74 52.94 C15.89 47.06, 9.83 39.36, 0.62 31.09 M28.73 51.35 C17.14 44.76, 8.02 33.05, 0.6 26.27 M29.91 53.79 C19.96 43.9, 7.83 34.17, -0.92 26.86 M35.12 54.35 C28.46 45.47, 19.52 40.07, 0.87 19.56 M36.66 51.89 C22.01 41.53, 9.83 29.45, 0.68 21.32 M43.43 51.48 C25.64 38.23, 11.05 22.78, -2.2 14.29 M42.98 52.59 C29.75 41.82, 16.28 30.91, -1.28 15.26 M50.6 55.18 C35.31 39.85, 21.12 30.63, -0.99 9.18 M50.03 52.6 C37.93 43.27, 27.13 35.59, 0.11 10.76 M56.1 51.39 C37.61 37.53, 20.68 21.86, 0.35 4.07 M55.29 53.6 C31.71 33.03, 10.05 14.6, -0.78 4.6 M61.34 51.24 C47.35 41.03, 34.51 30.15, -0.97 1.04 M60.73 52.74 C47.57 41.13, 34.25 29.82, 0.8 -0.97 M67.62 54.36 C49.62 40.06, 37.06 25.8, 7.65 -1.18 M66.43 53.72 C45.61 33.99, 26.01 15.84, 6.69 1.08 M71.33 51.86 C57.23 38.61, 37.49 23.73, 13.47 -1.16 M72.52 52.57 C55.22 35.6, 34.93 19.33, 12.84 0.34 M77.84 53.61 C57.71 36.83, 40.59 18.97, 20.02 0.79 M78.84 52.66 C58.14 34.14, 34.31 13.4, 17.61 -0.72 M85 51.98 C64.62 37.17, 47.22 19.86, 22.94 0.54 M85.06 53.29 C69.18 38.81, 51.63 23.79, 23.33 -0.98 M92.55 51.65 C74.36 40.99, 58.34 25.39, 29.21 1.24 M91.87 53.24 C72.72 37.2, 54.69 21.36, 30.28 -0.87 M98.03 50.83 C80.56 38.07, 61.96 19.92, 35.09 0.53 M97.63 52.74 C82.72 39.29, 66.04 25.01, 36.3 0.66 M102.03 54.28 C82.84 31.54, 59.76 12.87, 41.5 -1.69 M103.27 52.35 C86.83 38.33, 68.76 22.39, 42.96 0.72 M108.07 54.58 C97.02 41.63, 84.07 29.68, 47.54 -1.47 M110.93 52.98 C92.08 39.7, 76.04 24.15, 48.7 0 M116.04 53.88 C104.27 40.16, 90.37 28.21, 54.36 -1.58 M115.16 53.37 C98.8 38.63, 82.3 23.88, 55.53 -1.21 M121.71 51.71 C102.78 35.6, 79.93 17.85, 62.39 1.51 M123.03 52.75 C105.03 38.61, 86.08 21.86, 61.87 -0.16 M126.55 52.14 C105.89 34.41, 80.14 14.08, 67.25 -1.09 M127.82 51.76 C107.7 35.56, 88.81 18.39, 67.28 0.34 M133.03 54.94 C123.02 43.71, 108.42 33.11, 73.19 -0.95 M134.9 52.34 C112.39 34.6, 90.67 15.4, 73.53 -0.54 M142.48 54.69 C123.54 41.12, 108.93 26.8, 80.57 -0.53 M141.4 52.74 C121.84 36.75, 101.1 18.36, 78.86 0.98 M146.57 52.63 C132.24 40.7, 119.13 29.74, 83.73 -1.98 M146.38 52.03 C133.4 39.67, 119.08 28.82, 85.54 0.22 M152.74 54.44 C129.31 32.89, 104.44 11.11, 90.23 -0.01 M151.96 53.7 C137.11 39.27, 121.75 27.54, 91.85 -0.07 M160.11 51.42 C143.15 38.54, 124.83 25.59, 98.76 1.24 M157.99 53.66 C134.5 32.51, 111.1 10.5, 97.67 -0.73 M163.19 52.27 C149.05 40.68, 137.73 28.73, 102.57 0.03 M163.43 51.77 C145.73 35.5, 127.74 19.82, 102.69 0.36 M163.82 48.32 C151.34 36.53, 136.28 23.7, 110.98 -1.19 M163.06 45.82 C148.82 34.94, 135.03 22.26, 109.55 -0.12 M161.63 39.13 C146.91 28.17, 127.95 10.72, 117.18 1.4 M163.59 40.99 C144.2 24.05, 127.13 8.31, 116.47 -0.97 M165.43 37.83 C150.41 24.04, 134.83 9.35, 123.58 -1.89 M163.88 35.91 C151.09 25.08, 139.08 14.16, 122.22 0.41 M163.66 30.27 C152.21 19.83, 143.34 15.11, 129.6 -1.12 M162.98 29.56 C156.34 23.33, 148.03 17.81, 128.69 -0.01 M163.62 26.03 C154.71 18.97, 148.34 13.41, 133.22 -0.87 M164.16 25.19 C154.26 17.53, 144.52 9.62, 134.1 0.68 M164.58 21.06 C154.05 11.62, 143.86 3.24, 142.34 -0.48 M163.71 20.6 C157.51 14.92, 153.54 10.36, 141.19 0.91 M165.04 16.68 C160.48 9.44, 154.87 6.55, 144.77 1.15 M162.95 13.99 C159.21 11.72, 153.14 7.43, 146.78 -0.39 M163.61 9.87 C159.02 5.29, 153.75 2.45, 151.69 0.45 M163.02 8.58 C159.67 6.1, 156.75 4.18, 151.95 0.03 M163.39 4.67 C161.74 2.96, 159.81 0.94, 158.58 0.58 M163.21 3.88 C161.69 2.61, 160.13 0.98, 158.77 0.43" stroke="#82c91e" stroke-width="0.5" fill="none"></path><path d="M0.9 -1.19 C43.78 1.98, 89.47 -1.08, 163.26 -0.4 M0.31 0.77 C41.32 -0.5, 82.84 -0.95, 162.6 0.3 M163.14 0.4 C162.98 12.9, 162.63 27.15, 161.43 53.13 M161.71 0.94 C160.98 14.8, 162.62 27.5, 162.25 52.75 M160.91 52.86 C108.56 52.39, 54.41 53.77, -1.78 53.1 M161.3 53.47 C101.61 52.93, 41.41 52.91, 0.09 53.01 M1.42 54.31 C-0.23 40.73, -0.38 30.83, 1.59 0.61 M-0.59 53.82 C-0.4 32.94, -0.34 11.1, -0.73 0.07" stroke="#000000" stroke-width="1" fill="none"></path></g><g transform="translate(599 250) rotate(0 69 12.5)"><text x="0" y="18" font-family="Virgil, Segoe UI Emoji" font-size="20px" fill="#000000" text-anchor="start" style="white-space: pre;" direction="ltr">Mongo Primary</text></g><g stroke-linecap="round" transform="translate(678.5 336.5) rotate(0 94 26.5)"><path d="M0 0 C0 0, 0 0, 0 0 M0 0 C0 0, 0 0, 0 0 M-0.34 6.02 C1.1 3.85, 3.19 3.3, 5.42 1.04 M0 6.54 C0.83 4.64, 2.55 2.83, 4.82 0.38 M0.4 13.47 C1.05 10.48, 5.15 6.51, 11.76 -0.58 M0.63 12.68 C3.23 8.33, 7.14 3.93, 10.95 -0.53 M-1.27 18.52 C6.25 12.33, 9.51 7.88, 15.42 2.05 M0.58 19.38 C5.3 14, 8.66 7.83, 14.89 0.9 M-1.23 25.86 C6.23 17.54, 14.08 7.88, 21.62 1.4 M0.49 24.53 C7.6 15.55, 16 6.73, 21.49 0.92 M-1.02 29.6 C8.74 21, 15.95 10.86, 24.74 0.13 M-0.75 31.42 C7.74 22.1, 14.33 13.41, 25.47 -0.44 M-0.52 37.42 C7.9 26.37, 15.06 19.02, 29.92 0.5 M-0.67 36.5 C11.5 22.54, 23.55 8.96, 31.94 -0.1 M1.36 43.02 C8.68 32.77, 16.23 23.96, 35.34 2.13 M0.75 42.38 C7.74 32.56, 16.96 22.01, 36.15 -0.47 M-0.15 48.2 C10.91 37.06, 22.53 21.05, 42.62 1.79 M0.12 49.7 C14.58 32.86, 28.85 15.21, 42.66 -0.89 M2.82 54.64 C15.27 38.31, 28.85 22.55, 46.75 -0.81 M1.71 53.66 C18.88 33.94, 35.2 16.3, 46.94 0.05 M7.28 54.68 C21.56 36.69, 40.17 15.02, 54.59 0.8 M5.79 54.65 C18.27 39.08, 31.11 25.12, 52.58 -1.01 M10.06 52.76 C28.03 36.4, 44.15 14.93, 58.72 1.69 M11.93 54.41 C24.38 38.04, 37.04 24.44, 58.95 -0.51 M14.83 56.13 C36.05 34.47, 51.49 15.12, 63.95 1.3 M15.84 54.53 C33.64 34.75, 49.54 17.06, 64.3 0.56 M21.97 51.89 C39.87 34.42, 58.84 11.82, 69.21 1.32 M21.85 54.31 C32.4 42.56, 42.66 30.7, 69.46 0.31 M26.5 52.89 C41.16 39.69, 56.61 24.32, 74.02 1.39 M26.63 54.4 C38.38 39.71, 51.05 25.92, 75.01 0.48 M32.51 53.47 C47.22 32.64, 64.5 13.74, 80.41 1.04 M32.35 53.33 C42.38 40.39, 54.28 29.13, 78.88 0.09 M39.1 55.31 C48.51 40.75, 59.24 29.64, 83.35 -0.6 M38.28 53.16 C52.98 37.49, 66.22 21.39, 85.57 0 M42.83 55.23 C59.46 34.35, 79.98 13.1, 88.71 1.09 M43.99 54.03 C58.37 36.47, 74.43 18.41, 89.77 0.52 M47.65 55 C65.46 32.67, 83.61 10.77, 95.7 -0.02 M49.01 53.8 C62.92 37.94, 78.93 20.55, 95.5 -0.01 M55.33 53.17 C69.34 35.19, 83.84 15.61, 98.76 1.01 M53.96 54.59 C62.96 43.66, 73.84 31.81, 99.81 0.39 M59.41 54.86 C71.85 39.71, 84.65 23.69, 106.05 0.03 M58.21 54.43 C74.6 35.84, 89.53 18.43, 105.91 -0.08 M63.62 55.59 C78.82 40.58, 90.15 25.68, 109.37 1.6 M65.07 53.79 C79.36 38, 92.84 21.54, 110.83 0.61 M67.84 55.08 C88.8 32.85, 104.85 9.95, 117.95 -0.48 M69.4 53.26 C80.46 41.66, 91.48 27.3, 115.94 -0.36 M74.52 53.06 C86.53 42.81, 95.33 28.79, 123.63 -1.05 M74.79 54.04 C89.9 34.76, 105.95 17.1, 121.83 -0.81 M78.62 55.12 C92.56 41.98, 103.51 26.89, 128.13 0.42 M81.23 53.63 C92.04 41.29, 103.31 27.33, 126.31 1.32 M86.07 52.44 C102.18 36.85, 117.17 18.06, 130.8 -1.58 M86.24 54.34 C103.87 33.72, 120.94 13.66, 131.89 0.25 M91.67 55.71 C105.63 35.73, 119.59 18.51, 136.57 1.23 M90.52 52.97 C108.48 32.79, 125.88 12.86, 138.43 1.03 M97.55 54.86 C112.46 35.86, 129.48 16.4, 144.38 0.67 M97.15 53.31 C111.45 35.97, 127.53 17.66, 143.29 -0.96 M103.1 52.9 C120.79 34.06, 137.2 10.35, 147.12 0 M101.2 53.83 C116.94 36.27, 133.61 17.37, 148 0.67 M107.42 53.74 C126.58 33.24, 144.21 13.18, 152.08 -0.36 M106.91 54.17 C120.61 37.81, 134.18 20.67, 154.42 -1.12 M111.25 51.99 C128.54 34.96, 146.86 12.19, 156.87 1.05 M111.36 52.85 C125.49 39.15, 137.2 24.77, 159.37 -0.22 M118.74 53.52 C132.68 37.16, 144.76 21.27, 165.85 0.52 M116.91 54.52 C129.87 40.12, 141.13 26.53, 164.81 0.24 M122.69 53.55 C133.66 40.12, 149.32 25.06, 170.11 0.99 M122.21 53.82 C140.64 31.69, 159.76 11.75, 168.5 0.48 M127.74 52.69 C143.56 37.5, 158.29 18.08, 175.84 -2.17 M128.11 54.28 C141.68 39.66, 155.04 23.44, 174.14 -0.33 M134.18 55.48 C143.47 42.19, 152.54 31.2, 180.35 -1.3 M133.14 54.59 C143.17 41.75, 154.07 32, 180.03 0.51 M137.89 54.25 C152.98 38.82, 164.39 26.77, 184.42 1.33 M138.18 53.26 C156.17 33.71, 171.79 15.45, 185.23 -1.16 M142.74 54.9 C152.09 43.68, 165.63 29.29, 191.01 2.86 M144.63 54.16 C154.4 41.74, 165.76 30.44, 188.91 1.74 M148.57 52.75 C160.49 39.26, 170.31 28.39, 189.62 5.63 M149.05 53.13 C159.3 43.7, 167.65 34.2, 190.48 7.09 M155.58 54.27 C166.74 41.14, 175.98 31.46, 188.16 11.97 M155.34 53.61 C163.79 41.49, 173.8 31.33, 190.16 13.17 M160.33 53 C168.45 42.79, 176.64 36.2, 190.87 18.05 M159.34 53.17 C167.32 45.66, 175.13 35.05, 190.61 20.28 M164.13 55.28 C169.17 48.06, 178.53 41.82, 190.17 25.19 M165.05 53.14 C169.98 48.68, 175.45 42.58, 189.52 24.82 M168.98 52.12 C177.1 48, 182.55 36.8, 190.49 30.43 M171.26 53.24 C175.2 47.9, 179.27 43.97, 189.13 31.64 M174.04 52.94 C180.25 50.64, 185.96 45.01, 191.43 38.54 M175.69 53.08 C181.42 48.41, 185.15 42.32, 190.17 36.86 M180.04 53.66 C185.47 51.5, 187.15 47.44, 189.2 44.16 M181.44 54.54 C184.4 49.66, 186.98 46.55, 189.02 43.9 M186.77 53.57 C187.43 52.84, 188.52 51.2, 189.81 49.43 M186.55 53.39 C187.32 52.76, 188.24 51.82, 189.66 49.87 M0.17 53.15 C0.17 53.15, 0.17 53.15, 0.17 53.15 M0.17 53.15 C0.17 53.15, 0.17 53.15, 0.17 53.15 M5.18 52.37 C4.37 50.26, 1.88 49.11, 0.28 47.19 M6.18 52.91 C4.09 51.92, 2.86 50.07, -0.53 47.12 M10.8 51.42 C10.04 49.59, 7.82 47.87, 1.11 43.91 M12.62 53.63 C8.99 50.62, 5.02 48.14, 0.73 42.77 M18.52 52.73 C11.58 50.17, 8.5 45.6, 0.36 38.64 M18.29 52.8 C11.93 47.68, 6.79 43.13, -0.12 37.23 M24.37 52.15 C17.6 48.56, 14.99 45.27, -1.8 33.87 M24.72 51.92 C18.14 47.57, 10.5 42.02, 0.32 31.59 M30.21 54.44 C18.51 42.33, 6.2 30.99, 0.67 25.55 M31.14 52.53 C19.85 44.43, 10.57 36, -0.81 27.14 M36.43 51.89 C21.29 40.7, 10.25 30.28, 0.49 22.01 M37.13 53.66 C25.37 43.62, 15.73 33.93, -0.87 21.39 M42.83 52.99 C24.41 39.41, 9.45 24.15, 0.44 16.85 M43.67 52.86 C30.39 42.31, 20.08 33.88, 0.31 15.46 M48.5 51.67 C30.32 36.61, 11.75 22.31, -1.43 9.99 M49.77 54.18 C31.76 38.87, 13.7 22.15, -0.62 10.9 M53.32 53.06 C35.26 35.02, 14.43 17.17, -0.63 4.24 M55.64 53.75 C42.07 42.25, 28.44 30.94, -0.71 5.05 M61.38 53.27 C43.35 36.94, 28.88 23.47, -1 -1.62 M60.85 52.31 C39.1 35.49, 18 14.57, 0.3 -0.12 M66.89 54.61 C48.09 33.9, 28.25 18.21, 7.18 1.61 M65.96 52.27 C43.91 33.18, 23.04 14.6, 6.58 1.24 M73.39 52.68 C58.94 40.27, 42.78 24.89, 10.62 -0.43 M72.48 53.48 C53.32 35.42, 33.06 18.93, 11.33 0.69 M79.68 51.55 C58.58 34.19, 40 20.02, 18.5 1.9 M80.45 52.28 C61.27 37.25, 43.22 22.5, 18.99 -0.22 M83.27 51.55 C64.62 34.86, 47.23 20.66, 22.37 0.2 M84.66 52.05 C61.53 32.8, 38.18 13.63, 24.9 -0.17 M89.81 55.08 C66.38 31.78, 43.31 10.63, 31.39 -0.93 M91.78 52.76 C75.45 38.83, 57.22 25.18, 31.18 -0.26 M97.01 51.79 C77.6 33.29, 56.66 16.86, 38.21 -0.64 M97.03 52.99 C75.12 33.57, 53.61 14.08, 36.41 1.04 M103.87 51.68 C90.99 40.43, 76.41 28.65, 42.44 -2.07 M103.05 52.76 C88.31 40.31, 73.27 27.31, 41.74 0.39 M110.57 54.26 C94.22 38.58, 79.73 23.41, 48.07 1.45 M110.61 53.55 C96.92 41.72, 83.74 30.04, 48.13 -0.79 M115.93 54.42 C95.15 35.32, 77.43 22.01, 55.43 -0.41 M115.73 53.81 C102.3 43.02, 91.34 30.69, 54.91 -0.38 M120.85 54.12 C105.49 36.54, 87.17 20.61, 62.36 -1.88 M121.83 53.6 C108.16 41.93, 94.43 28.71, 60.75 -0.69 M126.26 53.68 C107.9 33.41, 86.92 13.48, 68.14 0.1 M127.42 53.52 C114.79 40.96, 103.17 30.51, 68.31 -0.44 M132.26 54.79 C116.33 37.98, 99.12 20.46, 74.95 -0.34 M133.99 52.6 C112.67 35.02, 93.3 17, 73.34 0.76 M140.11 51.76 C125.09 40.78, 112.27 29.58, 79.3 1.8 M139.65 53.28 C120.16 34.81, 97.75 16.03, 78.94 1.01 M147.64 51.3 C133.96 41.73, 116.33 28.06, 85.93 1.6 M145.3 51.97 C129.24 38.92, 115.29 26.4, 85.1 -0.91 M150.7 54.29 C128.71 33.07, 111.13 16.85, 91.09 -0.7 M151.8 52.63 C139.95 40.83, 125.51 29.38, 90.72 0.34 M159.08 52.99 C142.86 39.23, 124.95 24.96, 96.37 -0.54 M158.6 52.74 C136.32 33.83, 114.37 16.21, 97.14 -0.4 M165.72 52.13 C141.17 32.1, 118.47 13.15, 104.2 -1.17 M164.66 52.17 C149.3 40.47, 131.81 24.74, 104.43 -0.15 M170.62 54.12 C152.59 35.17, 133.81 19.45, 111.29 0.04 M171.11 53.18 C149.08 34.02, 126.72 15.38, 110.44 -0.28 M178.31 52.79 C157.02 34.44, 140.45 19, 116.51 0.89 M176.4 51.96 C154.18 32.89, 130.41 12.66, 115.52 -0.51 M181.26 53.24 C168.92 40.46, 157.41 29.34, 122.18 -0.61 M182.46 53.23 C167.66 39.3, 150.66 24.45, 121.38 -0.03 M189.84 51.03 C172.55 37.03, 154.22 23.05, 129.89 -1.05 M188.35 53.18 C170.13 35.61, 151.91 20.75, 127.8 0.45 M188.71 45.3 C177.53 33.76, 160.68 23.22, 134.02 -1.8 M187.38 47.49 C175.31 35.76, 163.7 26.49, 133.74 0.31 M187.85 40.41 C170.68 28.66, 154.36 13.83, 141.15 -1.25 M187.88 42.61 C174.48 29.57, 159.8 17.89, 139.5 -0.45 M187.41 38.03 C177.83 30.54, 172.46 19.85, 147.98 0.42 M188.76 36.72 C177.74 27.83, 168.7 17.9, 146.42 -0.18 M188.2 30.78 C179.46 25.53, 171.26 18.69, 152.58 0.31 M187.68 31.13 C175.07 18.78, 161.26 7.18, 152.72 0.22 M186.83 26.77 C181.48 20.41, 173.92 12.42, 160.24 -0.03 M188.95 25.6 C178.45 18.42, 170.47 10.34, 159.22 0.35 M188.93 22.74 C182.9 15.18, 180.81 10.95, 162.96 1.26 M188.48 21.24 C178.86 12.82, 170.09 5.95, 163.46 0.82 M188.34 16.53 C180.75 8.78, 174.84 6.51, 168.89 0.05 M187.62 15.8 C183.1 12.18, 179.42 7.39, 170.85 0.87 M188.34 8.61 C185.47 7.08, 182.42 4.51, 177.9 -0.44 M188.23 10.49 C186.22 7.74, 183.26 6.33, 177.18 0.2 M188.3 4.57 C185.76 2.51, 184.95 1.73, 183.46 -0.32 M188.14 4.23 C186.88 3.56, 185.6 2.56, 182.7 0.14" stroke="#82c91e" stroke-width="0.5" fill="none"></path><path d="M0.14 -0.45 C68.07 1.49, 138.18 1.52, 188.5 -1.4 M0.11 -0.84 C69.15 0.42, 137.36 1.25, 188.43 0 M188.63 -0.78 C189.77 15.66, 188.41 33.16, 189.4 51.95 M188.81 0.36 C188.56 14.41, 189.18 27.43, 188.3 52.51 M188.54 52.69 C147.75 51.01, 103.58 49.84, -0.89 53.4 M187.24 53.83 C142.77 52.51, 99.26 52.46, 0.69 52.18 M1.93 51.03 C0.85 33.5, -2.39 15.36, 1.24 1.19 M-0.63 52.26 C1.19 38.31, 0.14 25.49, -0.55 -0.33" stroke="#000000" stroke-width="1" fill="none"></path></g><g transform="translate(692.5 350.5) rotate(0 82 12.5)"><text x="0" y="18" font-family="Virgil, Segoe UI Emoji" font-size="20px" fill="#000000" text-anchor="start" style="white-space: pre;" direction="ltr">Mongo Secondary</text></g><g stroke-linecap="round" transform="translate(473 336.5) rotate(0 94 26.5)"><path d="M0 0 C0 0, 0 0, 0 0 M0 0 C0 0, 0 0, 0 0 M0.36 6.28 C2.39 3.8, 4.03 2.82, 4.53 0.22 M0.01 6.5 C1.35 4.63, 3.55 2.04, 5.27 0.55 M-0.07 12.81 C2.06 8.65, 4.84 6.77, 9.72 -1.38 M-0.47 11.64 C3.86 8.41, 7.42 3.15, 10.86 0.57 M0.62 19.71 C3.99 11.66, 7.17 9.92, 17.24 -1.07 M-0.98 19.44 C6.7 11.95, 11.55 5.58, 15.7 1.08 M-1.15 24.88 C9.09 15.19, 15.46 9.06, 22.29 1.47 M0.16 23.16 C8.25 15.46, 16.86 5.17, 21.48 0.51 M-0.68 31.63 C4.92 24.85, 10.63 18.16, 27.63 0.61 M-0.33 29.88 C7.77 22.41, 16.26 13.85, 26.05 1.11 M-1.34 37.49 C6.94 26.48, 16.4 17.19, 33.08 1.34 M-0.41 36.76 C10.03 22.68, 21.83 9.59, 32.39 0.35 M-0.79 41.78 C6.54 31.11, 17.6 23.24, 35.85 0.21 M0.78 43.14 C8.26 32.6, 16.47 23.76, 36.03 0.09 M0.83 47.11 C14.15 34.01, 24.72 20.1, 43.59 0.42 M-0.43 49.7 C15.23 30.94, 32.71 12.01, 41.86 0.37 M2.02 54.53 C15.27 36.94, 32.29 18.18, 46.99 1.1 M0.53 54.29 C18.18 33.08, 35.97 12.1, 47.52 0.37 M7.07 53.7 C19.78 38.97, 36.8 21.46, 52.8 0.43 M6.54 53.93 C21.51 35.57, 36.84 16.48, 52.2 0.31 M11.32 55.68 C19.71 44.46, 32.12 31.54, 56.43 0.87 M11.73 54.21 C24.49 39.33, 37.37 23.87, 58.01 0.38 M14.84 54.99 C33.07 35.19, 47.97 17.59, 63 0.33 M16 55.13 C29.98 40.18, 42.21 25.18, 62.82 0.59 M22.91 54.12 C37.36 38.49, 50.26 21.76, 67.86 1.34 M21.26 54.3 C40.72 32.6, 57.85 10.67, 69.6 -0.27 M26.58 52.7 C37.8 42.38, 48.71 26.47, 73.73 -1.72 M26.76 53.85 C37.75 42.69, 47.38 29.67, 75.27 -0.76 M31.73 54.66 C46.61 34.48, 63.12 17.08, 79.21 -1.46 M31.97 54.3 C44.43 41.29, 55.45 27.36, 80.01 0.16 M39.62 53.47 C50.19 42.16, 61.51 27.17, 83.85 1.68 M37.86 53.52 C53.84 36.74, 69.03 18.49, 84.16 -1.04 M43.99 55.3 C61.94 33.48, 79.01 12.99, 88.72 0.7 M43.8 54.58 C58.33 35.86, 72.71 18.74, 89.54 0.55 M47.56 52.19 C66.26 32.29, 83.42 12.71, 97.46 1.13 M48.91 54.71 C64.81 35.73, 81.64 16.43, 96.27 0.07 M55.18 53.27 C68.86 35.99, 85.8 16.88, 100.88 -1.7 M54.83 53.16 C72.57 33.19, 89.85 10.9, 100.14 -0.09 M58.29 53.94 C74.24 36.71, 92.34 16.44, 105.98 0.46 M59.16 54.13 C77.94 33.47, 95.74 13.1, 105.44 -0.47 M64.08 55.02 C77.81 38.85, 90.78 20.87, 112.51 -1.98 M64.22 52.68 C81.46 34.01, 99.39 12.54, 110.33 0.42 M67.98 52.03 C83.05 39.08, 93.81 24.91, 117.42 -0.54 M70.46 53.63 C84.38 37.71, 97.26 21.9, 116.98 0.72 M74.75 54.24 C88.42 38.97, 98.96 25.59, 122.66 0.77 M75.26 53.45 C86.96 39.65, 100.98 24.99, 122.26 0.37 M79.06 53.99 C97.18 31.03, 116.92 12.45, 125.06 0.9 M80.28 53.2 C95.32 37.03, 110.06 18.82, 127.29 -0.65 M86.53 53.79 C99.89 40.03, 113.39 22.8, 130.69 -0.33 M86.32 54.39 C95.95 42.22, 105.35 31.13, 132.69 -0.79 M90.28 55.57 C100.38 41.07, 112.28 32.96, 137.49 1 M90.67 53.96 C104.37 39.15, 116.21 26.06, 136.9 1.08 M96.03 51.79 C114.74 32.56, 128.99 15.61, 142.25 -1.95 M95.92 54.09 C105.81 42.24, 117.87 28.96, 143.99 0.52 M102.63 54.73 C112.11 41.29, 124.57 30.49, 147.23 0.46 M101.32 53.19 C114.33 38.16, 126.33 24.57, 148.09 -0.56 M107.15 51.57 C119.64 41.16, 128.7 30.96, 155.23 -0.51 M107.65 53.75 C121.66 37.59, 134.5 23.3, 153.14 -0.98 M113.42 53.67 C123.77 37.18, 137.24 24.41, 160.1 -0.78 M112.52 53.3 C125.61 37.87, 138.48 24.47, 159.28 -0.4 M116.43 52.43 C129.07 41.41, 141.21 24.18, 165.85 1.75 M116.58 55 C127.41 42.17, 140.29 29.61, 164.71 -0.42 M122.21 52.78 C131.65 44.32, 142.19 32.59, 169.18 -1.6 M122.16 52.84 C139.3 35.3, 155.23 14.5, 169.98 -0.65 M129.64 52.61 C139.72 39.37, 150.13 28.92, 174.58 -1.16 M126.85 53.81 C141.93 39.27, 156.31 23.2, 175.9 0.2 M132.86 52.68 C150.78 35.63, 164.85 15.85, 180.84 -1.64 M132.75 53.51 C152.09 34.24, 168.59 13.62, 179.81 0.17 M139.86 55.86 C156.84 31.74, 172.72 13.06, 184.18 -1.03 M138.74 54.09 C152.47 37.89, 167.21 20.18, 185.51 -0.98 M143.51 52.23 C154.71 41.39, 167.05 28.08, 187.42 2.18 M144.4 53.13 C158.93 36.24, 174.19 18.45, 190.2 1.64 M148.12 54.37 C158.72 42.29, 170.43 33.22, 191.13 6.13 M148.3 53.6 C163.84 36.88, 177.05 21.83, 190.4 6.89 M156.56 54.47 C160.65 46.71, 169.16 34.36, 187.98 11.73 M153.85 52.68 C163.53 43.27, 172.47 34.04, 190.11 14.55 M160.74 55.57 C167.91 45.8, 174.27 37.31, 191.38 19.94 M159.67 53.77 C167.19 45.33, 176.52 35.77, 190.21 20.21 M164.72 52.69 C171.61 44.22, 181 36.67, 189.92 26.44 M165.42 53.28 C169.52 48.16, 175.81 42.88, 188.69 26.71 M171.29 52.09 C176.15 49, 178.78 43.24, 189.81 31.51 M170.13 54.66 C177.35 45.18, 184.33 36.3, 189.86 31.77 M176.97 52.38 C179.34 48.85, 185.62 44.46, 188.73 39.54 M176.07 53.18 C180.24 47.45, 186.48 42.2, 189.98 38.14 M182.07 55.15 C183.03 50.85, 186.55 47.23, 188.29 44.34 M181.03 53.97 C183.73 50.56, 187.54 46.5, 189.76 44.56 M187.11 53.5 C187.01 52.34, 188.37 52.04, 190.22 49.73 M186.55 53.38 C187.78 52.02, 188.94 50.81, 189.72 49.73 M0.17 53.15 C0.17 53.15, 0.17 53.15, 0.17 53.15 M0.17 53.15 C0.17 53.15, 0.17 53.15, 0.17 53.15 M6.54 53.45 C4.84 52.22, 2.86 50.91, -0.5 47.56 M5.87 52.78 C3.95 50.98, 2.76 49.77, -0.42 47.18 M11.76 51.7 C7.77 50.86, 4.73 44.1, 0.61 42.32 M12.26 53.76 C8.53 48.88, 4.47 45.97, 0.45 43.06 M16.99 52.33 C10.33 46.65, 6.09 42.09, 0.11 38.84 M18.72 53.12 C14.48 49.47, 9.46 44.44, -0.97 36.73 M22.87 53.84 C17.37 45.37, 9.27 40.56, -1.32 33.54 M24.31 52.02 C15.86 45.15, 8.66 39.89, 0.13 32.78 M32.41 51.18 C21.56 44.35, 12.82 38.63, 0.81 25.55 M29.68 52.48 C20.24 44.04, 11.42 36.83, -1.15 26.48 M35.19 51.11 C21.84 40.75, 7.68 30.7, 1.7 21.45 M35.39 53.72 C21.52 40.18, 7.81 27.72, 0.52 20.8 M43.04 52.26 C31.98 42.66, 17.35 34.33, 1.07 15.11 M42.57 52.54 C28.38 39.36, 13.52 27.33, 0.34 15.17 M48.63 53.78 C31.06 37.77, 14.36 21.66, -0.91 12.19 M49.2 52.61 C38.45 43.14, 26.74 33.4, -0.01 9.66 M53.53 52.4 C40.53 41.83, 27.5 30.64, -1.92 6.05 M54.99 53.38 C40.27 39.88, 26.68 26.77, -0.78 5.65 M62.26 53.7 C48.25 42.02, 35.47 30.46, -1.58 -1.83 M61.25 53.91 C41.32 36.32, 23.13 21.56, 0.44 -0.07 M66.84 54.63 C52.92 43.85, 43.56 30.1, 7.09 0.04 M66.16 53.24 C49.69 36.47, 31.67 20.8, 7.1 -0.67 M72.65 53.94 C59.81 42.29, 46.45 28.1, 11.63 -1.49 M72.43 53.48 C52.4 33.55, 30.84 13.96, 12.44 -0.21 M78.95 54.83 C65.6 40.69, 54.45 30.28, 20.34 -1.26 M78.63 54.16 C61.57 37.52, 43.68 20.69, 19.41 0.03 M84.94 52.08 C62.81 34.74, 44.83 16.75, 24.76 1.54 M85.01 52.13 C69.99 40.54, 56.32 28.63, 24.03 0.57 M89.86 53.18 C72.23 34.36, 48.39 15.03, 29.56 1.78 M92.35 52.36 C78.42 41.38, 62.34 28.23, 30.93 0.94 M95.51 50.96 C79.54 38.17, 67.57 26.96, 37 -1 M96.32 53.32 C74.66 33.71, 55.46 16.55, 36.7 -0.09 M102.11 52.01 C91.74 40.92, 76.67 30.03, 41.07 0.56 M104.09 53.13 C87.75 38.78, 70.33 24.29, 41.79 -0.53 M110.81 53.28 C87.76 33.52, 64.94 16.6, 47.53 -1.17 M110.6 52.84 C87.27 33.22, 64.9 14.16, 49.28 -0.39 M115.79 51.22 C101.01 41.3, 82.17 23.87, 56.46 -0.27 M115.5 53.3 C97.52 35.66, 79 19.85, 55.27 -0.31 M122.3 52.98 C100.35 34.18, 77.57 15.99, 62.09 -0.79 M122.92 53.1 C103.06 35.7, 85.45 19.88, 61.46 0.58 M127.23 50.95 C106.34 33.51, 82.3 13.47, 67.35 -0.2 M126.84 52.8 C114.04 40.56, 101.84 29.4, 67.49 -0.04 M132.96 53.21 C119.4 39.14, 101.55 23.47, 71.93 -0.17 M134.71 52.15 C117.36 37.87, 99.57 23.38, 73.79 -0.79 M139.84 54.17 C121.58 34.98, 103.49 21.21, 78.37 0.53 M140.73 52.37 C127.23 39.43, 110.62 27.05, 79.43 -0.71 M144.33 53.67 C130.81 39.72, 118.15 30.36, 84.6 0.65 M145.77 52.02 C124.61 35.08, 103.79 16.66, 85.44 -0.96 M151.02 54.15 C134.67 36.84, 115.72 22.53, 89.73 -1.12 M152.14 53.92 C139.06 42.85, 128.22 30.41, 92.43 0.34 M159.21 53.27 C142.97 40.57, 130.8 25.85, 98.67 0.46 M158 52.39 C144.65 41.61, 131.23 30.09, 97.93 0.41 M162.72 52.32 C141.87 31.6, 118.7 12.26, 104.13 0.34 M163.91 53.47 C149.82 40.57, 134.46 26.51, 104.2 -0.28 M172.45 52.82 C150.76 37.84, 134.1 21.07, 110.74 0.33 M171.18 54.21 C158.25 42.2, 147.28 31.46, 109.14 0.82 M176.43 53.67 C152.33 32.59, 129.99 14.7, 113.56 1.67 M176.73 53.53 C155.35 34.43, 134.81 18, 114.55 -0.31 M181.9 54.34 C166.18 41.41, 152.35 26.21, 121.94 1.51 M182.92 52.12 C168.34 40.37, 153.55 27.57, 122.81 -0.12 M187.89 53.43 C176.25 40.78, 162.47 31.7, 130.06 1.46 M188.9 52.74 C167.73 34.8, 148.9 18.33, 129.15 -0.18 M188.19 45.18 C174.9 35.97, 161.45 24.96, 132.96 0.8 M187.41 47.47 C173.76 36.51, 161.31 24.4, 134.54 -0.3 M189.08 40.52 C169.71 26.84, 151.14 8.56, 140.67 -0.42 M189.26 42.4 C173.03 27.87, 157.09 13.74, 139.53 -0.66 M188.75 38.44 C172.78 21.41, 155.61 9.17, 146.72 1.24 M188.51 35.81 C179.21 28.03, 169.64 20.83, 145.55 0.51 M190.4 31.1 C180.44 23.95, 172.62 17.37, 153.99 -0.94 M188.41 30.92 C177.25 21.29, 164.09 11.63, 152.57 0.08 M188.07 27.73 C179.49 19.79, 172.26 12.05, 159.22 -1.28 M188.95 26.58 C179.29 18.15, 170.87 10.71, 158.4 0.35 M190.45 19.05 C179.33 15.46, 172.46 8.1, 163.14 1.51 M189.48 21.38 C180.37 12.77, 172.55 5.99, 164.53 -1.12 M186.66 13.27 C181.24 10.56, 177.05 4.3, 170.46 1.41 M188.29 14.32 C182.94 11.91, 179.82 7.2, 171.02 -0.58 M189.8 8.8 C184.8 7.01, 180.39 5.68, 176.5 -1.85 M189.08 10.83 C184.69 6.56, 181.59 4.17, 176.71 -0.7 M188.2 4.55 C186.24 2.64, 184.69 2.05, 182.92 -0.14 M187.82 4.43 C186.3 3.42, 184.56 1.54, 182.64 -0.35" stroke="#82c91e" stroke-width="0.5" fill="none"></path><path d="M0.44 0.89 C70.05 1.8, 141.81 2.36, 188.46 1.97 M-0.51 -0.44 C60.37 1.49, 119.88 1.25, 187.25 -0.08 M186.5 1.88 C188.95 13.87, 188 27.02, 186.44 51.54 M187.87 0.27 C187.96 12.49, 187.57 26.44, 187.02 53.3 M187.17 52.25 C118.29 51.11, 49.73 51.13, 0.1 53.01 M188.61 53.25 C144.48 52.5, 100.26 53.01, -0.77 53.94 M1.23 52.73 C-1.71 40.49, -0.29 26.68, -1.45 -1.46 M-0.01 52.64 C-0.02 39.32, 0.01 23.6, 0.05 0.96" stroke="#000000" stroke-width="1" fill="none"></path></g><g transform="translate(487 350.5) rotate(0 82 12.5)"><text x="0" y="18" font-family="Virgil, Segoe UI Emoji" font-size="20px" fill="#000000" text-anchor="start" style="white-space: pre;" direction="ltr">Mongo Secondary</text></g><g stroke-linecap="round"><g transform="translate(670 290) rotate(0 -42.36194366356358 21.08741612246257)"><path d="M-0.42 1.07 C-14.49 7.84, -71.11 33.48, -85.22 40.04 M1.56 0.58 C-12.62 7.62, -71.71 35.32, -86.28 41.6" stroke="#000000" stroke-width="1" fill="none"></path></g><g transform="translate(670 290) rotate(0 -42.36194366356358 21.08741612246257)"><path d="M-63.06 20.25 C-69.86 25.33, -74.25 30.92, -84.69 40.68 M-65.06 20.07 C-71.35 27.71, -79.61 35.43, -86.11 41.7" stroke="#000000" stroke-width="1" fill="none"></path></g><g transform="translate(670 290) rotate(0 -42.36194366356358 21.08741612246257)"><path d="M-54.59 38.94 C-63.26 39.65, -69.62 40.91, -84.69 40.68 M-56.58 38.76 C-65.67 40.27, -76.74 41.8, -86.11 41.7" stroke="#000000" stroke-width="1" fill="none"></path></g></g><g stroke-linecap="round"><g transform="translate(670.5 293) rotate(0 49.68524102754884 20.245793480640316)"><path d="M-0.55 0.38 C16.04 7.04, 83.21 34.47, 99.92 40.96 M1.36 -0.47 C17.75 5.79, 82.69 32.55, 98.93 39.34" stroke="#000000" stroke-width="1" fill="none"></path></g><g transform="translate(670.5 293) rotate(0 49.68524102754884 20.245793480640316)"><path d="M69.59 37.91 C80.54 38.18, 87.81 40.27, 98.87 38.26 M68.65 38.59 C79.48 38.41, 92.35 38.64, 99.46 39.34" stroke="#000000" stroke-width="1" fill="none"></path></g><g transform="translate(670.5 293) rotate(0 49.68524102754884 20.245793480640316)"><path d="M77.44 18.95 C85.93 25.48, 90.59 33.87, 98.87 38.26 M76.5 19.63 C84.43 26.56, 94.36 33.88, 99.46 39.34" stroke="#000000" stroke-width="1" fill="none"></path></g></g><g stroke-linecap="round" transform="translate(602 126) rotate(0 64.5 27)"><path d="M0 0 C0 0, 0 0, 0 0 M0 0 C0 0, 0 0, 0 0 M-0.35 7.09 C0.33 4.3, 2.55 3.08, 5.18 -0.15 M-0.3 6.11 C1.3 4.96, 1.82 4.02, 5.34 0.13 M1.67 11.18 C4.77 8.7, 5 4.88, 10.74 1.52 M-0.6 12.55 C2.99 9.84, 4.72 6.21, 10.56 -0.77 M-1.59 19.34 C5.21 15.5, 8.53 7.61, 13.82 2 M-1.02 17.8 C3.21 13.52, 7.39 9.9, 15.91 -0.53 M-1.35 24.1 C5.37 18.56, 10 12.71, 20.64 0.02 M-0.35 24.3 C7 16.94, 12.86 8.54, 20.74 0.09 M-0.18 31.98 C10.5 17.95, 18.73 10.28, 24.56 1.21 M0.65 30.53 C8.25 21.78, 14.49 12.92, 25.89 1.24 M-1.59 37.56 C10.91 25.16, 24.57 11.89, 33.32 0.56 M0.36 36.66 C11.59 22.53, 23.4 9.22, 32.12 -0.57 M-1.84 40.65 C9 30.42, 21.9 17.47, 35.59 2.04 M0.65 41.8 C8.19 33.71, 16 24, 36.44 -0.69 M-0.08 49.8 C9.95 36.47, 25.21 20.21, 44.08 -0.28 M0.58 48.16 C11.16 35.47, 24.99 21.16, 41.96 0.49 M0.08 56.16 C13.72 39.09, 30.17 19.97, 46.08 1.03 M-0.44 54.71 C11.67 43.26, 20.45 31.97, 48.26 -0.47 M6.99 53.94 C17.41 43.93, 26.48 29.63, 54.51 -0.11 M5.6 54.3 C21.32 34.63, 39.14 17.55, 53.17 0.8 M9.03 55.45 C22.56 38.28, 36.86 22.58, 58.5 -0.06 M10.1 54.43 C21.79 42.94, 31.61 30.84, 57.19 0.4 M16.13 55.88 C34.37 34.66, 46.45 17.49, 62.45 -0.3 M17.23 54.78 C26.49 42.97, 35.54 29.75, 63.26 -0.94 M19.74 55.85 C30.02 42.74, 40.71 32.26, 68.59 -0.23 M20.6 55.42 C38.66 34.74, 57.78 12.71, 69.16 0.06 M25.89 52.52 C39.56 35.97, 54.16 19.8, 76.04 -0.01 M28.14 54.7 C39.73 41.65, 51.89 27.24, 75.33 0.11 M31.73 52.83 C43.45 40.86, 55.23 26.63, 79.37 -1.3 M31.47 54.19 C49.4 35.13, 65.55 16.58, 79.21 -0.71 M38.65 52.67 C51.72 36.91, 66.9 22.4, 83.69 -2.17 M38.69 54.53 C54.78 34.49, 73.24 14.87, 85.11 -0.08 M44.78 54.07 C57.34 37.22, 74.42 16.2, 91.17 -1.84 M43.76 54.41 C53.38 43.7, 63.81 31.64, 90.51 0.5 M50.1 52.39 C58.37 39.75, 69.67 27.71, 96.12 0.48 M49.34 54.38 C63.81 38.49, 77.1 21.56, 95.94 0.6 M52.97 53.48 C72.47 32.82, 86.1 16.32, 99.56 0.79 M54.12 53.87 C70.67 36.43, 87.5 15.86, 101.31 0.76 M58.55 53.68 C71.63 37.81, 88.35 22.4, 108.28 -0.54 M59.01 55.75 C69.11 42.24, 78.94 31.38, 105.76 -0.59 M62.65 53.18 C82.57 35.84, 99.27 16.46, 109.41 0.45 M63.79 53.52 C81.09 34.82, 98.68 14.94, 111.99 0.77 M69.56 55.53 C81.14 41.99, 91.07 29.88, 116.79 1.22 M68.7 55.51 C83.13 38.19, 97.38 22.92, 115.47 0.5 M74.46 53.51 C90.61 36.05, 107.7 16.12, 120.87 0.2 M75.65 54.45 C92.4 34.71, 110.15 14.5, 122.04 -0.14 M77.99 56.38 C89.61 42.74, 101.71 30.33, 128.51 2.2 M80.56 55.45 C93.89 38.43, 107.35 22.61, 126.54 0.9 M85.31 55.03 C97.56 39.57, 113.55 25.43, 130.07 -0.14 M85.18 54.87 C100.26 38.39, 113.89 20.69, 131.73 0.54 M88.66 53.17 C99.57 42.68, 108.65 34.13, 132.03 6.85 M89.47 54.25 C101.16 43.4, 110.28 30.93, 131.54 7.58 M94.41 52.51 C109.42 41.44, 118.33 28, 129.19 12.74 M95.45 55.16 C103.13 45.18, 109.59 37.12, 131.23 14.22 M101.64 56.01 C112.12 42.51, 122.24 33.1, 130.09 20.52 M101.47 55.2 C110.81 43.58, 120.82 30.02, 131.46 19.34 M105.22 52.97 C113.24 42.95, 124.39 35, 130.72 25.51 M106.16 54.81 C114.85 44.93, 123.22 35.47, 129.86 26.11 M110.32 54.28 C114.49 48.02, 120.61 43.9, 133 33.28 M110.68 55.26 C116.65 49.69, 120.04 44.5, 132.23 31.62 M115.51 53.6 C121.77 51.66, 124.72 46.66, 131.28 38.87 M116.61 53.48 C121.4 50.67, 125.08 46.06, 130.88 38.85 M122.93 54.55 C123.89 51.51, 126.01 49.2, 130.76 44.71 M122.27 54.21 C125.38 51.7, 127.1 48.5, 130.12 44.43 M127.71 54.58 C128.74 53.11, 130.13 51.49, 130.69 50.78 M128.06 54.1 C128.95 52.62, 130.38 51.39, 130.91 50.28 M-0.32 53.72 C-0.32 53.72, -0.32 53.72, -0.32 53.72 M-0.32 53.72 C-0.32 53.72, -0.32 53.72, -0.32 53.72 M5.49 54.49 C4.74 53.11, 2.61 51.38, -0.06 48.27 M5.9 53.59 C3.73 51.84, 1.84 50.12, 0.07 48.46 M14.13 53.4 C6 48.39, 3 46.8, -0.93 42.43 M12.42 54.88 C8.92 51.68, 6.02 48.95, -1.14 43.24 M18.12 55.83 C13.18 48.11, 7.85 42.04, -0.25 37.92 M17.65 52.9 C11.14 48.33, 3.92 42.15, -0.26 37.53 M24.59 53.05 C18.29 50.18, 15.46 46.13, 1.37 33.69 M24.27 54.72 C16.12 45.54, 4.83 38.14, 0.59 32.98 M28.97 55.63 C20.06 46.39, 13.16 41.42, 0.65 28.85 M30.71 53.79 C24.11 49.21, 18.2 44.05, 0.55 27.88 M38.51 53.35 C25.44 41.22, 13.21 34.32, 0.03 23.74 M36.59 53.91 C26.24 46.15, 17.13 38.09, -0.35 23.45 M41.08 53.64 C30.61 41.29, 13.56 30.1, -1.83 16.41 M43.94 53.68 C30.06 43.28, 17.94 31.49, -1.02 17.22 M47.25 52.8 C31.3 40.32, 12.74 23.17, 1.76 11.02 M49.15 54.37 C38.98 44.39, 29 35.89, -0.69 11.14 M54.38 53.07 C38.49 37.82, 19.2 23.29, -0.71 5.85 M55.77 54.76 C42.4 43.65, 29.83 31.5, 0.63 6.29 M61.14 55.29 C45.68 39.66, 28.3 24.01, 0.92 1.65 M60.84 54.53 C42.6 37.68, 25.41 22.75, 0.81 0.99 M67.36 55.32 C51 42.7, 36.86 30.91, 2.51 -4.37 M67.53 54.32 C44.37 33.75, 20.13 14.39, 1.43 -2.55 M72.56 52.6 C57.26 41.11, 40.93 25.66, 10.45 -0.81 M73.42 55.12 C53.39 35.98, 33.64 18.9, 9.34 -2.7 M80.03 55.36 C53.44 33.83, 27.7 11.89, 14.9 -2 M79.4 53.11 C55.44 33.27, 30.41 11.87, 13.74 -1.71 M86.9 55.73 C64.23 36.86, 44.04 19.14, 18.73 -3.74 M85.49 53.54 C61.34 33.29, 35.72 11.41, 19.84 -1.65 M92.67 52.37 C70.27 36.75, 51.17 23.16, 27.47 -2.63 M90.17 53.06 C67.99 32.8, 44.46 12.55, 26.65 -3.05 M97.09 52.88 C78.32 38.86, 61.94 21.23, 33.19 -3.63 M98.02 54.82 C78.23 36.87, 59.73 21.34, 31.61 -2.76 M104.62 52.41 C87.86 41.02, 74.13 27.61, 37.04 -3.48 M102.99 54.86 C80.22 33.79, 58.17 14.26, 38.92 -2.61 M110.6 52.82 C86.47 32.13, 62.92 11.42, 45.31 -1.5 M110.32 53.94 C84.45 31.56, 57.65 8.19, 44.36 -2.54 M117.22 55.8 C89.87 33.5, 65.56 11.5, 51.49 -0.49 M115.36 54.41 C91.6 34.65, 68.28 12.45, 51.17 -2.75 M120.17 55.52 C105.09 38.32, 90.72 25.29, 56.84 -4.12 M121.85 53.55 C99.33 34.95, 78.69 17.25, 57.38 -3.34 M128.37 55.03 C101.97 30.57, 77.66 8.83, 64.22 -2.45 M128.64 53.69 C105.78 34.77, 81.79 13.93, 63.4 -3.21 M131.57 52.23 C111.34 34.77, 88.47 13.04, 70.59 -1.4 M130.88 50.95 C113.12 37.81, 97.64 23.38, 69.35 -1.71 M130.41 46.29 C112.89 30.89, 90.66 10.8, 73.15 -3.56 M131.01 45.3 C118.03 33.85, 103.19 20.46, 74.93 -2.78 M130.55 40.79 C114.77 25.84, 95.72 11.51, 81.37 -3.01 M130.52 40.5 C116.94 29.33, 104.37 17.74, 82.27 -2.05 M129.09 37.1 C113.09 21.79, 96.55 5.91, 87.51 -0.79 M131.33 35.11 C116.06 22.67, 101.58 9.02, 86.22 -3.57 M131.51 31.38 C121.92 21.38, 109.98 9.94, 94.53 -4.41 M130.35 30.29 C117.85 18.74, 105.34 7.19, 93.03 -1.62 M131.41 24.59 C119.06 16.58, 109.29 4.41, 98.55 -3.27 M130.08 25.49 C122.56 16.58, 112.77 9.51, 100.6 -1.41 M132.34 20.86 C122.46 14.23, 114.04 4.29, 104.96 -3.51 M132.24 19.53 C121.34 11.01, 113.09 2.07, 105.38 -2.22 M131.62 13.47 C124.56 10.16, 119.69 5.18, 110.52 -0.86 M130.3 14.33 C125.74 8.47, 119.58 3.14, 112.21 -1.48 M130.27 7.47 C127.11 5.54, 123.33 3.2, 116.02 -2.08 M131.17 9.95 C125.78 4.65, 121.32 0.58, 117.65 -2.52 M131.48 4 C129.25 2.05, 127.59 0.48, 123.69 -2.36 M131.21 3.1 C128.77 2.41, 127.21 1.06, 123.85 -2.85" stroke="#fa5252" stroke-width="0.5" fill="none"></path><path d="M-0.13 -0.12 C47.78 -1.07, 92.17 -1.49, 127.47 -0.49 M-0.74 0.37 C32.74 -0.26, 66.19 -1.11, 129.55 0.6 M130.77 -1.58 C127.86 16.18, 130.6 28.38, 127.96 54.51 M128.56 0.71 C129.15 11.01, 129.13 23.3, 129.05 53.55 M130.73 53.76 C86.39 55.23, 46.24 54.47, 0.26 53.29 M129.17 54.01 C85.7 54.88, 43.43 53.82, -0.79 54.86 M-0.53 53.62 C0.34 31.22, -1.85 10.17, -1.5 -0.03 M0.64 53.94 C-0.67 33.66, 0.42 14.21, -0.06 0.2" stroke="#000000" stroke-width="1" fill="none"></path></g><g transform="translate(617 139) rotate(0 50 12.5)"><text x="0" y="18" font-family="Virgil, Segoe UI Emoji" font-size="20px" fill="#000000" text-anchor="start" style="white-space: pre;" direction="ltr">Api Server</text></g><g stroke-linecap="round"><g transform="translate(666.2253407093676 185) rotate(0 0.5587300067860497 24.017546480968605)"><path d="M0.95 0.51 C1.12 8.4, 1.2 40.32, 1.01 48.3 M-0.01 -0.26 C0.1 7.16, 0.79 38.57, 0.61 46.33" stroke="#000000" stroke-width="1" fill="none"></path></g><g transform="translate(666.2253407093676 185) rotate(0 0.5587300067860497 24.017546480968605)"><path d="M-6.81 25.55 C-4.52 30.17, -1.86 36.92, 1.24 45.84 M-7.29 24.1 C-4.34 31.92, -1.72 40.39, 0.66 46.53" stroke="#000000" stroke-width="1" fill="none"></path></g><g transform="translate(666.2253407093676 185) rotate(0 0.5587300067860497 24.017546480968605)"><path d="M9.61 25.5 C7 30.27, 4.76 37.03, 1.24 45.84 M9.12 24.05 C6.22 31.99, 2.98 40.47, 0.66 46.53" stroke="#000000" stroke-width="1" fill="none"></path></g></g><g stroke-linecap="round"><g transform="translate(187.55959595959598 153.8562342342658) rotate(0 27.028570972785587 0.16311089529722267)"><path d="M-0.86 -1.01 C8.29 -0.62, 45.88 1.29, 54.92 1.34 M0.89 1.07 C9.96 1.25, 45.25 -0.02, 54.41 -0.17" stroke="#000000" stroke-width="1" fill="none"></path></g><g transform="translate(187.55959595959598 153.8562342342658) rotate(0 27.028570972785587 0.16311089529722267)"><path d="M27.58 11.16 C38.85 5.76, 43.02 5.1, 53.31 -0.77 M29.6 10.43 C35.28 7.17, 42.98 3.66, 53.44 -0.77" stroke="#000000" stroke-width="1" fill="none"></path></g><g transform="translate(187.55959595959598 153.8562342342658) rotate(0 27.028570972785587 0.16311089529722267)"><path d="M27.09 -7.32 C38.35 -7.16, 42.67 -2.27, 53.31 -0.77 M29.11 -8.05 C34.92 -6.22, 42.75 -4.63, 53.44 -0.77" stroke="#000000" stroke-width="1" fill="none"></path></g></g><g stroke-linecap="round" transform="translate(287 50) rotate(0 39 25)"><path d="M0 0 C0 0, 0 0, 0 0 M0 0 C0 0, 0 0, 0 0 M-0.02 7.01 C1.17 5.59, 2.49 3.84, 5.29 1.05 M0.05 6.68 C0.98 4.33, 2.43 2.82, 5.13 0.72 M-0.17 12.33 C2.54 9.21, 5.78 8.06, 11.49 1.23 M-0.16 12.06 C2.89 9.23, 5.17 6.03, 10.08 -0.56 M1.46 16.71 C6.86 13.72, 8.05 5.2, 14.56 1.37 M-0.98 19.25 C4.64 13.31, 8.7 7.4, 15.36 1.27 M-1.52 22.96 C7.97 16.23, 15.98 9.28, 21.14 0.7 M0.27 24.18 C6.94 17.29, 12.11 10.75, 22.26 -0.61 M0.2 28.87 C6.05 21.7, 10.99 15.59, 24.91 0.94 M-0.91 30.23 C6.12 23.54, 12.82 16.18, 27.21 0.88 M-1.28 37.65 C9.53 25.24, 17.7 15.52, 31.04 0.9 M-0.18 36.16 C11.01 25.35, 21.61 11.77, 31.56 -0.21 M-1.28 41.47 C13.58 25.96, 29.28 11.13, 36.96 2.09 M-0.82 42.38 C7.51 32.5, 15.93 23.26, 36.73 -0.06 M1.31 50.9 C16.96 31.47, 32.73 10.18, 41.45 -0.2 M-1.09 48.03 C9.01 38.72, 16.72 27.8, 43.12 0.8 M2.41 52.55 C15.77 35.99, 27.94 21.9, 49.17 0.37 M1.88 51.41 C20.22 33.2, 37.34 12.25, 47.39 0.44 M7.3 52.56 C24.3 32.68, 41.7 15.07, 51.72 0.3 M7.52 51.15 C21.38 36.85, 35.23 20.63, 53.34 -0.63 M12.54 52.06 C32.31 33.39, 47.58 11.21, 56.25 -0.48 M13.43 52.39 C24.63 39.25, 35.55 25.66, 57.26 -0.49 M17.55 51.04 C30.29 38.28, 39.8 27.54, 62.47 0.5 M17.79 52.38 C28.77 40.68, 38.93 30.07, 64.72 0.06 M24.58 50.56 C38.83 33.7, 55.42 13.27, 67.23 1.5 M23.12 51.42 C32.82 41.29, 41.2 30.3, 68 0.43 M29.8 49.95 C42.42 37.76, 51.89 22.66, 73.59 -0.28 M30.09 51.71 C39.16 39.96, 49.63 27.53, 74.86 0.1 M33.81 53.99 C47.62 35, 59.17 23.08, 78.73 1.26 M33.88 51.37 C52.95 32.67, 70.66 11.94, 79.26 0.35 M40.74 50.1 C48.51 43.52, 57.7 31.5, 80.37 7.3 M40.01 51.23 C51.49 38.7, 62.84 24.87, 79.58 7.13 M44.79 51.53 C56.9 38.8, 63.66 27.84, 77.15 13.76 M44.72 52.81 C52.83 42.12, 61.48 33.55, 79.75 12.41 M49.3 50.52 C58.29 43.71, 65.46 35.34, 79.92 18.25 M50.77 51.18 C56.66 44.36, 62.03 37.52, 78.36 19.9 M57.34 53.55 C63.58 44.96, 67.05 39.13, 80.17 24.3 M55.8 52.92 C62.8 43.1, 71.37 34.8, 79.82 24.96 M62.72 50.46 C63.89 48.89, 70.32 42.97, 79.89 32.77 M60.18 50.94 C65.93 46.96, 69.69 42.37, 78.03 30.74 M64.6 53.68 C71.36 45.14, 73.8 40.12, 77.94 35.74 M65.35 52.51 C69.31 48.31, 72.19 44.4, 79.57 37.84 M70.32 52.26 C74 49.87, 76.08 46.91, 79.94 43.64 M71.01 52.65 C73.37 49.44, 75.82 46.6, 78.35 43.88 M0.15 50.13 C0.15 50.13, 0.15 50.13, 0.15 50.13 M0.15 50.13 C0.15 50.13, 0.15 50.13, 0.15 50.13 M5.86 49.46 C3.97 47.22, 0.77 45.79, 0.36 44.22 M6.19 49.52 C4.29 48.6, 2.76 47.07, -0.49 44.59 M11.25 48.97 C7.87 46.12, 5.31 44.01, -1.28 38.43 M12.32 49.72 C8.66 46.91, 6.64 45.4, -0.48 39.15 M20.3 51.77 C14.29 46.58, 6.11 39.89, 1.64 32.68 M18.33 49.63 C12.25 45.17, 7.08 39.34, -0.89 33.67 M25.32 50.87 C14.92 42.59, 9.99 35.3, 1.82 30.82 M24.34 49.98 C15.47 42.13, 5.95 35.31, -0.18 29.68 M30.47 48.53 C22.09 41.82, 13.42 36.63, 1.58 21.98 M31.14 50.15 C23.25 44.15, 17.84 38.64, 0.14 22.38 M35.61 49.73 C29.08 41.54, 21.56 36.13, -0.62 17.93 M36.9 49.5 C23.69 38.84, 9.91 26.53, 0.51 17.36 M43.87 50.32 C28.68 40.01, 17.99 26.45, -0.77 12.78 M41.85 49.49 C27.91 35.55, 11.24 22.39, -1.26 13.22 M48.18 49.66 C31.36 33.96, 11.98 17.68, -1.43 7.41 M48.58 50.91 C34.8 37.15, 19.55 24.59, 0.62 7.66 M55.4 51.72 C35.26 34.84, 17.55 19.4, -1.23 2.04 M54.92 48.87 C34.01 30.48, 12.76 13.4, 0.26 2.84 M60.32 48.27 C48.61 37.08, 34.77 25.72, 2.74 -1.27 M61.77 50.56 C44.27 36.23, 28.51 20.4, 2.42 -2.45 M66.26 49.48 C43.97 29.35, 21.31 8.01, 8.96 0.52 M66.44 49.66 C53.19 36.48, 37.81 24.33, 8.43 -0.9 M74.88 50.35 C52 30.81, 32.78 14.79, 15.03 -1.86 M72.24 49.42 C60.8 39.16, 49.66 28.32, 14.35 -2.27 M77.94 48.63 C64.25 35.96, 54.26 26.91, 19.53 -1.02 M79.1 50.37 C62.31 34.93, 46.71 22.37, 20.79 -1.7 M76.43 45.36 C61.31 29.47, 47.19 15.41, 25.28 -2.96 M78.33 43.53 C65.81 33.83, 53.11 23.34, 24.84 -2.03 M78.12 37.86 C69.56 29.83, 58.13 20.67, 33.22 -0.57 M79.14 39.13 C62.22 24.98, 45.78 9.43, 31.75 -2.6 M77.12 35.17 C64.27 19.74, 47.63 9, 38.9 -3.1 M77.78 32.79 C67.86 25.06, 56.75 14.95, 38.24 -0.98 M78.92 27.11 C67.8 20.94, 58.29 8.44, 42.59 -0.95 M79.53 28.25 C66.85 16.21, 54.01 5.26, 44.34 -1.05 M78.19 24.19 C67.58 12.34, 57.18 3.42, 49.33 -0.56 M78.21 22.04 C70.63 15.35, 62.13 8.61, 50.25 -2.18 M78.65 18.05 C69.66 10.51, 64.92 4.79, 55.48 -3.77 M78.81 17.64 C71.28 10.22, 62.85 4.67, 56.68 -1.86 M78.83 13.42 C72.22 8.03, 69.14 3.5, 60.56 -3.44 M79.07 12.13 C73.69 8.34, 68.46 3.55, 63.44 -1.6 M79.48 8.02 C76.29 4.22, 72.36 1, 69.44 -2.32 M78.3 6.61 C76.03 5.48, 73.67 3.05, 69.46 -1.52 M78.58 1.84 C76.88 -0.03, 76.31 -0.8, 74.39 -1.96 M78.18 1.47 C77.38 0.57, 76.74 0.1, 74.68 -1.82" stroke="#82c91e" stroke-width="0.5" fill="none"></path><path d="M1.59 1.02 C29.18 -0.86, 55.39 -1.06, 76.05 1.78 M0.38 0.15 C29.34 0.54, 57.88 0.78, 77.03 0.63 M79.27 1.92 C77.57 11.1, 78.23 21.76, 77.74 51.8 M77.28 -0.22 C78.59 12.63, 78.63 25.79, 77.69 50.95 M76.14 50.82 C57.84 49.33, 36.61 48.48, 1.01 51.7 M77.47 49.73 C61.41 49.92, 45.65 50.23, -0.66 50.13 M-1.65 50.29 C1.44 35.38, -1.27 18.58, 0.23 1.61 M0.57 49.7 C-0.96 35.62, -0.74 19.46, -0.46 -0.23" stroke="#000000" stroke-width="1" fill="none"></path></g><g transform="translate(302 62) rotate(0 21 12.5)"><text x="0" y="18" font-family="Virgil, Segoe UI Emoji" font-size="20px" fill="#000000" text-anchor="start" style="white-space: pre;" direction="ltr">EC2</text></g><g stroke-linecap="round" transform="translate(289 122) rotate(0 39 25)"><path d="M0 0 C0 0, 0 0, 0 0 M0 0 C0 0, 0 0, 0 0 M-0.25 5.88 C1.16 4.02, 3.27 1.85, 5.67 0.61 M0.01 6.14 C2.09 4.21, 4.03 1.63, 5.38 0.57 M-1.33 11.42 C4.12 8.56, 6.29 6.72, 9.34 -1.46 M0.57 12.46 C3.35 9.08, 5.58 4.68, 10.9 0.66 M1.75 19.46 C5.17 13.34, 11.78 5.62, 14.46 -1.05 M-0.3 18.29 C4.27 13.02, 10.79 6.68, 15.35 -0.08 M-1.56 22.59 C5.55 14.88, 13.83 8.26, 21.36 -0.06 M-0.1 24.02 C7.05 17.87, 12.04 9.27, 21.74 -0.55 M-0.31 32 C5.81 24.24, 11.99 13.68, 25.72 0.53 M-0.65 30.33 C8.24 19.98, 18.43 9.69, 25.57 -0.48 M-0.48 35.97 C13.33 23.05, 24.39 7.61, 31.59 -1.43 M-0.7 37.64 C10.38 25.16, 21.36 11.03, 32.26 -0.32 M1.92 43.79 C15.05 27.62, 30.07 8.85, 37.05 0.3 M0.09 43.01 C8.42 32.44, 15.63 24.45, 36.85 0.45 M-1.96 47.85 C7.48 36.3, 17.75 25.55, 40.62 0.06 M0.1 48.01 C9.92 38.04, 20.41 25.82, 43.19 -0.03 M1.96 53.91 C12.07 41.09, 24.67 27.16, 47.22 2.15 M2.23 51.81 C15.82 35.9, 30.11 20.42, 47.56 -0.43 M6.63 53.19 C17.81 41.89, 25.82 28.66, 54.59 0.65 M7.57 51.01 C21.99 36.35, 37.42 20.3, 53.84 0.38 M11.12 50.46 C26.31 37.53, 40.28 19.14, 59.24 1.23 M13.35 52.56 C31.26 30.78, 49.55 10.71, 57.19 0.88 M17.64 52.54 C30.35 37.75, 39.33 25.64, 62.86 0.91 M17.66 51.97 C33.35 35.07, 46.89 19.4, 63.17 -0.44 M24.86 51.16 C40.23 33.77, 56.84 12.23, 70.31 1.96 M23.54 53.03 C35.74 37.39, 48.45 23.84, 69.41 0.47 M28.32 52.74 C43.33 35.51, 62.91 16.6, 76 -0.37 M29.07 51.32 C43.93 35.27, 58.07 18.77, 74.76 -0.2 M32.39 50.21 C47.22 39.29, 59.36 20.8, 77.22 0.81 M34.09 52.83 C50.18 34.96, 64.62 15.66, 78.32 0.29 M38.7 52.86 C50.72 38.92, 60.49 28.76, 77.91 6.74 M40.28 51.57 C53.8 35.68, 67.58 18.83, 79.94 6.76 M46.11 54.09 C56.2 37.71, 69.43 25.32, 78.43 13.35 M43.91 52.14 C52.07 42.39, 60.44 35.66, 79.69 12.21 M51.08 53.28 C58.74 41.78, 64.73 34.77, 80.24 18.84 M49.91 51.34 C56.71 44.1, 64.41 35.68, 79.24 20.18 M55.68 51.57 C63.66 41.56, 70.35 35.88, 79.67 24.52 M54.57 52.76 C63.78 43.14, 71.02 33.89, 79.41 25.35 M59.95 53.66 C65.6 47.51, 70.9 40.51, 79.15 30.83 M61.7 52.37 C66.67 45.24, 73.17 37.69, 78.08 30.37 M65.93 51.67 C67.95 49.04, 75.24 42.55, 79.01 35.9 M65.27 51.11 C68.82 48.53, 73.62 44.23, 79.69 36.22 M70.03 51.98 C73.69 49.9, 77.06 44.38, 78 43.4 M70.94 52.93 C72.57 51.08, 74.1 48.25, 78.32 43.04 M0.15 50.13 C0.15 50.13, 0.15 50.13, 0.15 50.13 M0.15 50.13 C0.15 50.13, 0.15 50.13, 0.15 50.13 M5.77 50.38 C4.55 48.55, 2.93 47.07, -0.76 45.02 M5.88 49.34 C4.21 47.87, 2.25 46.36, -0.39 44.22 M12.82 51.05 C9.99 48.29, 6.68 45.24, 0.18 38.54 M12.58 49.73 C7.38 46.26, 3.3 43.41, 0.19 40.13 M17.42 48.84 C14.76 46.95, 7.81 41.96, 0.51 35.85 M19.41 50.6 C14.31 46.27, 10.03 42.46, -0.82 33.61 M26.06 50.27 C15.33 41.88, 10.29 38.21, -1.55 27.74 M23.5 50.67 C14.56 42.38, 6.65 34.66, -0.33 28.98 M29.01 49.05 C19.59 41.05, 13.32 34.39, -0.4 23.99 M30.65 51.08 C22.63 42.49, 12.38 35.16, 0.31 23.41 M35.46 50.84 C25.29 39.5, 12.82 31.36, 1.35 16.43 M35.56 49.15 C25.31 40.63, 13.78 30.27, -0.06 18.63 M42.86 50.68 C28.29 35.63, 12.56 24.92, 0.03 11.31 M42.94 49.12 C25.74 36.81, 10.24 21.85, -0.5 12.39 M48.87 50.12 C29.93 35.95, 11.75 18.56, 0.11 6.32 M50.03 50.21 C37.88 40.64, 25.23 29.19, 0.93 7.31 M52.78 51.07 C33.34 31.97, 14.25 13.25, 2.12 3.83 M53.88 50.12 C40.09 37.83, 25.7 24.41, -0.15 2.93 M62.96 51.54 C42.28 31.1, 20.9 12.56, 1.63 -2.03 M61.44 49.62 C46.69 38.08, 30.92 24.83, 2.19 -1.48 M66.8 48.85 C42.57 31.23, 18.88 8.85, 8.66 -1.58 M67.21 49.57 C53.39 37.47, 40.14 25.85, 8.4 -2.32 M73.87 50.75 C54.16 33.9, 35.23 16.41, 12.59 -2.23 M73.22 50.71 C56.72 34.98, 41.04 22.54, 13.98 -2.57 M77.16 49.91 C64.55 35.07, 46.03 21.41, 21.38 -2.96 M77.82 50.08 C59.53 32.38, 41.09 16.57, 19.53 -1.38 M77.42 45.14 C67.65 34.96, 55.31 24.39, 26.26 -3.65 M78.91 44.87 C57.84 24.75, 36.17 6.89, 25.07 -1.74 M78.26 38.94 C68.45 31.26, 60.55 20, 32.93 -2.05 M78.64 39.87 C62.08 24.01, 45.72 9.82, 31.98 -2.59 M78.93 33.6 C67.84 23.69, 56.13 12.2, 39.47 -2.54 M78.98 34.29 C63.14 19.3, 47.22 6.47, 38.67 -1.83 M76.85 28.89 C67.3 18.42, 58.71 9.3, 43.75 -0.37 M77.92 29.26 C67.08 19.39, 56.6 9, 44.68 -1.76 M78.74 22.58 C68.56 12.34, 58.43 3.37, 48.97 0.15 M77.33 23.09 C69.49 13.15, 58 5.83, 49.9 -1.52 M77.85 19.52 C70.17 8.91, 63.87 2.91, 55.48 -1.17 M77.95 18.19 C70.78 10.66, 64.12 5.23, 55.18 -1.08 M77.11 12.21 C73.58 8.33, 70.18 3.78, 62.03 -3.28 M79.2 12.38 C74.08 8.81, 68.51 4.97, 63.27 -2.42 M78.47 6.27 C75.78 4.98, 70.98 1.04, 69.41 -2.29 M78.34 7.49 C76.06 3.69, 72.61 1.99, 69.23 -1.48 M78.07 1.8 C77.07 0.65, 76.55 -0.82, 74.7 -1.36 M78.06 1.54 C77 0.21, 75.66 -0.58, 74.53 -2.06" stroke="#82c91e" stroke-width="0.5" fill="none"></path><path d="M-0.79 -1.22 C24.84 1.57, 48.26 1.49, 77.62 -1.48 M0.29 0.71 C19.65 -0.69, 41.38 -0.01, 78.27 -0.67 M77.04 1.68 C78.15 12.13, 78.64 27.24, 76.82 49.54 M78.84 -0.76 C78.23 13.39, 77.16 27.31, 77.78 49.56 M79.33 49.12 C55.45 48.74, 33.1 49.53, -0.98 50.75 M77.93 50.22 C49.34 49.43, 21.77 49.68, -0.21 50.7 M-0.95 49.75 C0.85 36.11, 0.91 23.16, -0.26 -1.05 M-0.17 50.78 C0.22 39.53, 0.01 27.87, -0.03 0.36" stroke="#000000" stroke-width="1" fill="none"></path></g><g transform="translate(304 134) rotate(0 21 12.5)"><text x="0" y="18" font-family="Virgil, Segoe UI Emoji" font-size="20px" fill="#000000" text-anchor="start" style="white-space: pre;" direction="ltr">EC2</text></g><g stroke-linecap="round" transform="translate(291 191) rotate(0 39 25)"><path d="M0 0 C0 0, 0 0, 0 0 M0 0 C0 0, 0 0, 0 0 M0.49 5.67 C0.51 4.4, 1.77 3.61, 4.56 0.4 M-0.39 6.25 C1.29 4.84, 3.25 2.53, 4.76 0.55 M1.09 11.79 C4.06 8.42, 6.52 5.19, 9.14 -0.46 M0.39 11.52 C3.24 7.72, 6.43 5.04, 10.33 -0.58 M1.69 18.22 C2.3 15.35, 7.89 9.59, 16.04 0.03 M-0.35 17.99 C4.24 14.06, 7.97 9.85, 14.9 0.69 M-0.85 25.87 C7.16 18.02, 12.88 12.2, 19.88 0.1 M1.08 24.03 C7.31 17.01, 12.45 9.04, 21.63 -0.09 M0.92 28.65 C7.53 18.86, 15.78 9.74, 25.53 -1.61 M-0.32 30.7 C7.43 21.32, 16.89 12.51, 25.9 0.96 M1.36 36.59 C11.56 24.22, 21.7 14.36, 32.36 -0.39 M-0.59 36.87 C12 22.25, 24.35 8.25, 31.19 -0.05 M1.88 41.26 C10.42 32.66, 19.38 20.97, 36.46 1.7 M-0.09 42.21 C11.75 28.04, 25.64 15.03, 37.41 0.95 M0.74 47.17 C13.17 30.97, 31.61 13.57, 41.68 0.96 M0.09 49.39 C14.69 31.93, 28.8 14.89, 42.63 -1.08 M1.41 51.43 C19.95 33.93, 34.26 12.75, 46.21 -0.7 M1.32 51.45 C18.36 34.27, 33.61 14.98, 47.56 -0.39 M9.23 53.27 C18.91 36.81, 34.43 21.54, 53.61 1.37 M7.77 51.94 C26.48 31.38, 42.72 11.37, 53.26 0.47 M11.2 51.44 C28.49 33.18, 44.34 19.46, 59.42 1.78 M13.08 52.19 C25.6 37.67, 39.15 22.42, 57.58 0.54 M17.63 50.12 C30.34 36.04, 47.98 19.31, 62.19 -1.73 M17.75 51.83 C32.32 36.79, 45.57 20.1, 62.98 -0.63 M24.13 51.16 C35.65 40.11, 44.84 26.8, 70.03 -1.08 M23.89 52.74 C37.02 35.77, 51.8 19.06, 68.83 0.96 M28.61 53.19 C45.45 34.09, 57.78 18.16, 75.73 -0.68 M30.05 50.98 C44.11 34.99, 57.78 19.19, 75.31 0.57 M35.9 52.87 C46.12 41.56, 53.42 28.54, 78.6 2.5 M34.58 51.7 C46.3 37.14, 59.68 23.55, 79.08 1.5 M38.77 52.08 C54.29 34.54, 68.49 15.8, 80.95 7.18 M40.44 50.98 C51.28 40.12, 61.49 27.19, 78.49 6.92 M46.5 51.08 C58.41 38.92, 69.31 26.28, 78.43 13.32 M44.6 52.83 C54.48 40.5, 64.13 29.77, 79.73 12.24 M49.96 51.68 C55.76 43.53, 62.96 40.65, 77.37 19.18 M50.8 51.01 C56.44 43.09, 64.88 36.42, 78.91 19.87 M54.18 50.49 C59.63 45.45, 67.19 39.96, 77.15 23.49 M55 52.02 C63.53 43.88, 70.64 35.52, 78.27 24.02 M59.35 50.05 C67.05 47.78, 69.24 42.58, 78.07 30.86 M60.11 50.92 C64.79 46.48, 71.18 40.73, 78.82 31.97 M65.48 52.04 C70.97 48.34, 72.29 43.64, 77.8 35.7 M65.44 52.31 C69.86 47.03, 74.93 41.01, 78.5 36.63 M72.03 52.92 C73.67 51.11, 75.47 48.94, 79.46 43.45 M70.89 52.74 C72.66 49.73, 74.62 47.56, 79.28 43.45 M0.15 50.13 C0.15 50.13, 0.15 50.13, 0.15 50.13 M0.15 50.13 C0.15 50.13, 0.15 50.13, 0.15 50.13 M5.56 50.47 C4.29 47.64, 1.89 47.17, 0.32 43.83 M6.1 49.44 C4.6 48.26, 2.94 47.49, 0 44.32 M11.58 48.7 C7.58 45.41, 3.83 44.38, 0.23 39.43 M12.89 50.01 C8.88 46.96, 3.91 42.34, 0.32 40 M17.06 49.44 C13.69 44.94, 5.99 38.04, 0.4 35.16 M18.87 49.55 C14.03 47.13, 11.29 43.48, -0.17 33.75 M23.07 50.05 C16.67 42.85, 5.9 34.06, -0.28 29.25 M24.12 50.13 C17.5 44.29, 13.68 40.1, 0.25 28.72 M31.76 49.93 C21.7 41.86, 14.12 34.02, -1.27 23.33 M30.4 51.09 C23.45 44.1, 17.14 37.13, -0.37 24.15 M35.32 47.8 C27.49 40.36, 16.08 32.58, -1.84 19.99 M35.97 48.9 C23.58 38.43, 11.03 27.23, 0.02 17.72 M41.63 51.85 C29.65 38.84, 13.44 25.97, -1.26 12.74 M43.44 50.32 C30.14 39.3, 19.05 28.02, 0.16 13.3 M50.87 50.3 C31.93 35.48, 18.14 21.26, -0.96 8.39 M49.07 50.71 C34.84 38.3, 19.78 25.7, -0.98 8.13 M53.51 50.58 C43.85 39.18, 32.27 29.13, 0.03 1.68 M54.62 49.93 C40.32 36.39, 23.49 23.68, 1.18 3.08 M62.44 48.49 C48.03 40.38, 33.1 26.01, 0.62 -0.26 M60.23 49.15 C47.68 38.74, 33.31 27.4, 2.18 -2.1 M67.5 48.74 C49.45 34.09, 31.08 17.84, 9.78 -0.75 M66.7 50.23 C54.43 39.29, 39.85 27.54, 7.35 -1.95 M71.3 49.48 C54.33 33.62, 36.31 18.73, 11.98 -0.87 M74.14 49.87 C56.85 34.76, 38.23 20.51, 13.11 -1.82 M79.02 50.16 C66.63 39.25, 54.38 28.41, 19.14 -0.48 M79.53 50.21 C64.87 36.69, 48.55 23.64, 19.63 -1.27 M79.45 42.08 C65.16 30.81, 49.41 20.25, 23.86 -2.23 M78.54 43.14 C59.45 26.35, 39.64 10.04, 25.9 -1.3 M80.67 39.37 C63.85 27.92, 48.35 16.11, 31.28 -3.15 M79 37.96 C60.84 23.92, 41.39 6.65, 32.33 -2.22 M79.47 32.48 C67.71 22.06, 51.79 13.24, 37.6 -2.02 M79.09 32.58 C65.09 21.17, 50.43 10.33, 39.07 -2.32 M80.5 27.15 C65.52 15.44, 51.27 4.07, 42.18 -2.26 M78.27 29.24 C71.38 21.52, 64.12 13.79, 44.88 -1.02 M80 22.4 C70.61 17.49, 66.36 9.44, 49.57 -0.72 M77.83 22.21 C72.34 18.09, 64.14 11.83, 50.98 -0.99 M79.73 16.96 C73.5 11.2, 65.67 7.38, 54.1 -1.11 M78.52 16.92 C70.09 9.45, 59.93 1, 56.34 -1.79 M78.67 11.19 C74.64 7.97, 71.96 5.12, 61.67 -3.58 M79.12 11.63 C75.26 8.6, 71.42 5.81, 63.37 -0.81 M78.82 6.06 C75.42 6.02, 74.75 2.57, 69.81 -1.87 M78.26 6.73 C75.58 4.09, 72.16 1.03, 69.04 -1.06 M78.04 1.67 C76.96 0.59, 75.66 -1.04, 74.95 -1.72 M78.18 1.46 C77.27 0.7, 75.94 -0.46, 74.7 -1.96" stroke="#82c91e" stroke-width="0.5" fill="none"></path><path d="M0.96 -0.95 C28.6 0.96, 56.38 1.03, 76.32 -0.26 M0.41 -0.17 C20.08 0.08, 39.53 -0.13, 78.68 -0.03 M76.64 0.81 C76.84 16.37, 76.73 34.96, 76.05 50.85 M78.37 -0.48 C77.39 13.09, 77.05 28.29, 77.71 50.9 M79.49 50.04 C53.27 48.31, 30.32 49.22, -1.23 51.71 M77.67 50.68 C51.48 50.58, 26.71 50.25, -0.05 50.98 M0.83 48.18 C-0.69 33.76, 0.07 15.12, 1.98 -1.61 M0.61 50.55 C0.66 39.75, 0.65 28.38, -0.83 0.33" stroke="#000000" stroke-width="1" fill="none"></path></g><g transform="translate(318 203) rotate(0 8.5 12.5)"><text x="0" y="18" font-family="Virgil, Segoe UI Emoji" font-size="20px" fill="#000000" text-anchor="start" style="white-space: pre;" direction="ltr">...</text></g><g stroke-opacity="0.1" fill-opacity="0.1" stroke-linecap="round" transform="translate(251 10) rotate(0 77.5 136)"><path d="M39.62 -1.28 L125.67 2.22 L138.87 4.5 L146.6 11.49 L150.63 22.54 L156.14 39.95 L154.33 241.76 L149.47 257.91 L144.57 263.78 L132.55 269.94 L117.62 270.05 L30.54 273.36 L22.12 268.69 L9.35 260.76 L3.32 249.58 L-1.38 231.42 L1.2 30.04 L0.75 21.08 L9.31 10.07 L20.93 2.15 L37.67 0.48" stroke="none" stroke-width="0" fill="#ced4da"></path><path d="M38.75 0 M38.75 0 C56.87 0.6, 79.2 2.37, 116.25 0 M38.75 0 C58.93 0.23, 79.48 1.26, 116.25 0 M116.25 0 C140.72 0.57, 154.1 13.17, 155 38.75 M116.25 0 C140.3 -1.66, 156.71 14.09, 155 38.75 M155 38.75 C156.98 88.45, 158.34 139.08, 155 233.25 M155 38.75 C155.03 86.04, 155.54 135.68, 155 233.25 M155 233.25 C156.23 259.28, 140.16 271.14, 116.25 272 M155 233.25 C156.12 259.41, 143.85 272.6, 116.25 272 M116.25 272 C93.73 272.48, 73.55 271.57, 38.75 272 M116.25 272 C91.58 272.49, 68.74 272.12, 38.75 272 M38.75 272 C12.08 273.35, -1.47 260.3, 0 233.25 M38.75 272 C13.26 270.15, 1.09 259.15, 0 233.25 M0 233.25 C-1.66 158.7, -2.04 87.88, 0 38.75 M0 233.25 C1.81 158.51, 1.52 83.28, 0 38.75 M0 38.75 C1.41 14.2, 14.82 -1.84, 38.75 0 M0 38.75 C-1.13 14.42, 10.82 1.29, 38.75 0" stroke="#000000" stroke-width="1" fill="none"></path></g><g stroke-linecap="round"><g transform="translate(415 153.96585904411398) rotate(0 92.36343293392099 0.6484206840977151)"><path d="M0.65 0.76 C31.59 0.96, 154.61 1.41, 185.2 1.52 M-0.47 0.12 C30.46 -0.05, 154.22 -0.11, 184.88 -0.23" stroke="#000000" stroke-width="1" fill="none"></path></g><g transform="translate(415 153.96585904411398) rotate(0 92.36343293392099 0.6484206840977151)"><path d="M157.98 12.09 C165.23 7.5, 172.44 6.48, 183.11 -0.78 M157.1 10.09 C167.28 5.51, 176.62 1.77, 184.39 -0.66" stroke="#000000" stroke-width="1" fill="none"></path></g><g transform="translate(415 153.96585904411398) rotate(0 92.36343293392099 0.6484206840977151)"><path d="M157.94 -8.43 C165.25 -7.65, 172.47 -3.3, 183.11 -0.78 M157.06 -10.43 C167.26 -7.42, 176.62 -3.58, 184.39 -0.66" stroke="#000000" stroke-width="1" fill="none"></path></g></g></svg>